<svg width="1200" height="525" viewBox="0 0 1200 525" fill="none" xmlns="http://www.w3.org/2000/svg">
<rect x="7.5" y="7.5" width="585" height="235" stroke="black" stroke-width="15"/>
<rect x="2.5" y="277.5" width="595" height="205" stroke="black" stroke-width="5"/>
<rect x="602.5" y="42.5" width="595" height="205" stroke="black" stroke-width="5"/>
<rect x="607.5" y="282.5" width="585" height="235" stroke="black" stroke-width="15"/>
<rect x="6.25" y="256.25" width="1187.5" height="12.5" stroke="black" stroke-width="12.5"/>
<line x1="54.5" y1="275" x2="54.5" y2="419" stroke="black" stroke-width="7"/>
<line x1="665.5" y1="106" x2="665.5" y2="250" stroke="black" stroke-width="7"/>
<line x1="173.5" y1="275" x2="173.5" y2="419" stroke="black" stroke-width="7"/>
<line x1="784.5" y1="106" x2="784.5" y2="250" stroke="black" stroke-width="7"/>
<line x1="803.5" y1="286" x2="803.5" y2="512" stroke="black" stroke-width="7"/>
<line x1="192.5" y1="12" x2="192.5" y2="238" stroke="black" stroke-width="7"/>
<line x1="292.5" y1="275" x2="292.5" y2="419" stroke="black" stroke-width="7"/>
<line x1="903.5" y1="106" x2="903.5" y2="250" stroke="black" stroke-width="7"/>
<line x1="411.5" y1="275" x2="411.5" y2="419" stroke="black" stroke-width="7"/>
<line x1="1022.5" y1="106" x2="1022.5" y2="250" stroke="black" stroke-width="7"/>
<line x1="1002.5" y1="286" x2="1002.5" y2="512" stroke="black" stroke-width="7"/>
<line x1="391.5" y1="12" x2="391.5" y2="238" stroke="black" stroke-width="7"/>
<line x1="530.5" y1="275" x2="530.5" y2="419" stroke="black" stroke-width="7"/>
<line x1="1141.5" y1="106" x2="1141.5" y2="250" stroke="black" stroke-width="7"/>
</svg>
