<svg width="549" height="561" viewBox="0 0 549 561" fill="none" xmlns="http://www.w3.org/2000/svg">
<g clip-path="url(#clip0_1089_182)">
<mask id="path-1-inside-1_1089_182" fill="white">
<path d="M538.782 80.0078H9.64844Z"/>
</mask>
<path d="M538.782 82.0078C539.887 82.0078 540.782 81.1124 540.782 80.0078C540.782 78.9032 539.887 78.0078 538.782 78.0078V80.0078V82.0078ZM9.64844 78.0078C8.54387 78.0078 7.64844 78.9032 7.64844 80.0078C7.64844 81.1124 8.54387 82.0078 9.64844 82.0078V80.0078V78.0078ZM538.782 80.0078V78.0078H9.64844V80.0078V82.0078H538.782V80.0078Z" fill="black" mask="url(#path-1-inside-1_1089_182)"/>
<mask id="path-3-inside-2_1089_182" fill="white">
<path d="M19.0977 89.457H529.334Z"/>
</mask>
<path d="M19.0977 87.457C17.9931 87.457 17.0977 88.3525 17.0977 89.457C17.0977 90.5616 17.9931 91.457 19.0977 91.457V89.457V87.457ZM529.334 91.457C530.438 91.457 531.334 90.5616 531.334 89.457C531.334 88.3525 530.438 87.457 529.334 87.457V89.457V91.457ZM19.0977 89.457V91.457H529.334V89.457V87.457H19.0977V89.457Z" fill="black" mask="url(#path-3-inside-2_1089_182)"/>
<mask id="path-5-inside-3_1089_182" fill="white">
<path d="M529.332 89.4566L538.781 80.0078Z"/>
</mask>
<path d="M527.918 88.0424C527.137 88.8235 527.137 90.0898 527.918 90.8708C528.699 91.6519 529.965 91.6519 530.746 90.8708L529.332 89.4566L527.918 88.0424ZM540.195 81.422C540.976 80.641 540.976 79.3746 540.195 78.5936C539.414 77.8126 538.148 77.8126 537.367 78.5936L538.781 80.0078L540.195 81.422ZM529.332 89.4566L530.746 90.8708L540.195 81.422L538.781 80.0078L537.367 78.5936L527.918 88.0424L529.332 89.4566Z" fill="black" mask="url(#path-5-inside-3_1089_182)"/>
<mask id="path-7-inside-4_1089_182" fill="white">
<path d="M9.64844 80.0078L19.0972 89.4566Z"/>
</mask>
<path d="M11.0627 78.5936C10.2816 77.8126 9.01527 77.8126 8.23422 78.5936C7.45318 79.3746 7.45318 80.641 8.23422 81.422L9.64844 80.0078L11.0627 78.5936ZM17.683 90.8708C18.4641 91.6519 19.7304 91.6519 20.5115 90.8708C21.2925 90.0898 21.2925 88.8235 20.5115 88.0424L19.0972 89.4566L17.683 90.8708ZM9.64844 80.0078L8.23422 81.422L17.683 90.8708L19.0972 89.4566L20.5115 88.0424L11.0627 78.5936L9.64844 80.0078Z" fill="black" mask="url(#path-7-inside-4_1089_182)"/>
<mask id="path-9-inside-5_1089_182" fill="white">
<path d="M529.332 51.6611V80.0076Z"/>
</mask>
<path d="M531.332 51.6611C531.332 50.5566 530.437 49.6611 529.332 49.6611C528.227 49.6611 527.332 50.5566 527.332 51.6611H529.332H531.332ZM527.332 80.0076C527.332 81.1122 528.227 82.0076 529.332 82.0076C530.437 82.0076 531.332 81.1122 531.332 80.0076H529.332H527.332ZM529.332 51.6611H527.332V80.0076H529.332H531.332V51.6611H529.332Z" fill="black" mask="url(#path-9-inside-5_1089_182)"/>
<mask id="path-11-inside-6_1089_182" fill="white">
<path d="M529.332 89.457V91.347Z"/>
</mask>
<path d="M531.332 89.457C531.332 88.3525 530.437 87.457 529.332 87.457C528.227 87.457 527.332 88.3525 527.332 89.457H529.332H531.332ZM527.332 91.347C527.332 92.4516 528.227 93.347 529.332 93.347C530.437 93.347 531.332 92.4516 531.332 91.347H529.332H527.332ZM529.332 89.457H527.332V91.347H529.332H531.332V89.457H529.332Z" fill="black" mask="url(#path-11-inside-6_1089_182)"/>
<mask id="path-13-inside-7_1089_182" fill="white">
<path d="M538.781 91.3472V42.2129Z"/>
</mask>
<path d="M536.781 91.3472C536.781 92.4518 537.677 93.3472 538.781 93.3472C539.886 93.3472 540.781 92.4518 540.781 91.3472H538.781H536.781ZM540.781 42.2129C540.781 41.1083 539.886 40.2129 538.781 40.2129C537.677 40.2129 536.781 41.1083 536.781 42.2129H538.781H540.781ZM538.781 91.3472H540.781V42.2129H538.781H536.781V91.3472H538.781Z" fill="black" mask="url(#path-13-inside-7_1089_182)"/>
<mask id="path-15-inside-8_1089_182" fill="white">
<path d="M538.781 42.2129L529.332 51.6617Z"/>
</mask>
<path d="M540.195 43.6271C540.976 42.8461 540.976 41.5797 540.195 40.7987C539.414 40.0176 538.148 40.0176 537.367 40.7987L538.781 42.2129L540.195 43.6271ZM527.918 50.2475C527.137 51.0286 527.137 52.2949 527.918 53.0759C528.699 53.857 529.965 53.857 530.746 53.0759L529.332 51.6617L527.918 50.2475ZM538.781 42.2129L537.367 40.7987L527.918 50.2475L529.332 51.6617L530.746 53.0759L540.195 43.6271L538.781 42.2129Z" fill="black" mask="url(#path-15-inside-8_1089_182)"/>
<mask id="path-17-inside-9_1089_182" fill="white">
<path d="M0.199219 161.268V151.819Z"/>
</mask>
<path d="M-1.80078 161.268C-1.80078 162.373 -0.905351 163.268 0.199219 163.268C1.30379 163.268 2.19922 162.373 2.19922 161.268H0.199219H-1.80078ZM2.19922 151.819C2.19922 150.715 1.30379 149.819 0.199219 149.819C-0.905351 149.819 -1.80078 150.715 -1.80078 151.819H0.199219H2.19922ZM0.199219 161.268H2.19922V151.819H0.199219H-1.80078V161.268H0.199219Z" fill="black" mask="url(#path-17-inside-9_1089_182)"/>
<mask id="path-19-inside-10_1089_182" fill="white">
<path d="M9.64844 0.637695L19.0972 10.0865Z"/>
</mask>
<path d="M11.0627 -0.776518C10.2816 -1.55757 9.01527 -1.55757 8.23422 -0.776519C7.45318 0.00452923 7.45318 1.27086 8.23422 2.05191L9.64844 0.637695L11.0627 -0.776518ZM17.683 11.5007C18.4641 12.2818 19.7304 12.2818 20.5115 11.5007C21.2925 10.7197 21.2925 9.45335 20.5115 8.6723L19.0972 10.0865L17.683 11.5007ZM9.64844 0.637695L8.23422 2.05191L17.683 11.5007L19.0972 10.0865L20.5115 8.6723L11.0627 -0.776518L9.64844 0.637695Z" fill="black" mask="url(#path-19-inside-10_1089_182)"/>
<mask id="path-21-inside-11_1089_182" fill="white">
<path d="M529.332 10.0865L538.781 0.637695Z"/>
</mask>
<path d="M527.918 8.6723C527.137 9.45335 527.137 10.7197 527.918 11.5007C528.699 12.2818 529.965 12.2818 530.746 11.5007L529.332 10.0865L527.918 8.6723ZM540.195 2.05191C540.976 1.27086 540.976 0.00452923 540.195 -0.776519C539.414 -1.55757 538.148 -1.55757 537.367 -0.776518L538.781 0.637695L540.195 2.05191ZM529.332 10.0865L530.746 11.5007L540.195 2.05191L538.781 0.637695L537.367 -0.776518L527.918 8.6723L529.332 10.0865Z" fill="black" mask="url(#path-21-inside-11_1089_182)"/>
<mask id="path-23-inside-12_1089_182" fill="white">
<path d="M19.0977 10.0869H529.334Z"/>
</mask>
<path d="M19.0977 8.08691C17.9931 8.08691 17.0977 8.98234 17.0977 10.0869C17.0977 11.1915 17.9931 12.0869 19.0977 12.0869V10.0869V8.08691ZM529.334 12.0869C530.438 12.0869 531.334 11.1915 531.334 10.0869C531.334 8.98234 530.438 8.08691 529.334 8.08691V10.0869V12.0869ZM19.0977 10.0869V12.0869H529.334V10.0869V8.08691H19.0977V10.0869Z" fill="black" mask="url(#path-23-inside-12_1089_182)"/>
<mask id="path-25-inside-13_1089_182" fill="white">
<path d="M0.199219 161.268H9.64805Z"/>
</mask>
<path d="M0.199219 159.268C-0.905351 159.268 -1.80078 160.163 -1.80078 161.268C-1.80078 162.372 -0.905351 163.268 0.199219 163.268V161.268V159.268ZM9.64805 163.268C10.7526 163.268 11.6481 162.372 11.6481 161.268C11.6481 160.163 10.7526 159.268 9.64805 159.268V161.268V163.268ZM0.199219 161.268V163.268H9.64805V161.268V159.268H0.199219V161.268Z" fill="black" mask="url(#path-25-inside-13_1089_182)"/>
<mask id="path-27-inside-14_1089_182" fill="white">
<path d="M0.199219 399.378H9.64805Z"/>
</mask>
<path d="M0.199219 397.378C-0.905351 397.378 -1.80078 398.273 -1.80078 399.378C-1.80078 400.482 -0.905351 401.378 0.199219 401.378V399.378V397.378ZM9.64805 401.378C10.7526 401.378 11.6481 400.482 11.6481 399.378C11.6481 398.273 10.7526 397.378 9.64805 397.378V399.378V401.378ZM0.199219 399.378V401.378H9.64805V399.378V397.378H0.199219V399.378Z" fill="black" mask="url(#path-27-inside-14_1089_182)"/>
<mask id="path-29-inside-15_1089_182" fill="white">
<path d="M9.64844 161.268V399.378Z"/>
</mask>
<path d="M11.6484 161.268C11.6484 160.163 10.753 159.268 9.64844 159.268C8.54387 159.268 7.64844 160.163 7.64844 161.268H9.64844H11.6484ZM7.64844 399.378C7.64844 400.482 8.54387 401.378 9.64844 401.378C10.753 401.378 11.6484 400.482 11.6484 399.378H9.64844H7.64844ZM9.64844 161.268H7.64844V399.378H9.64844H11.6484V161.268H9.64844Z" fill="black" mask="url(#path-29-inside-15_1089_182)"/>
<mask id="path-31-inside-16_1089_182" fill="white">
<path d="M0.199219 399.378H548.231Z"/>
</mask>
<path d="M0.199219 397.378C-0.905351 397.378 -1.80078 398.273 -1.80078 399.378C-1.80078 400.482 -0.905351 401.378 0.199219 401.378V399.378V397.378ZM548.231 401.378C549.335 401.378 550.231 400.482 550.231 399.378C550.231 398.273 549.335 397.378 548.231 397.378V399.378V401.378ZM0.199219 399.378V401.378H548.231V399.378V397.378H0.199219V399.378Z" fill="black" mask="url(#path-31-inside-16_1089_182)"/>
<mask id="path-33-inside-17_1089_182" fill="white">
<path d="M548.23 408.827V399.378Z"/>
</mask>
<path d="M546.23 408.827C546.23 409.931 547.126 410.827 548.23 410.827C549.335 410.827 550.23 409.931 550.23 408.827H548.23H546.23ZM550.23 399.378C550.23 398.273 549.335 397.378 548.23 397.378C547.126 397.378 546.23 398.273 546.23 399.378H548.23H550.23ZM548.23 408.827H550.23V399.378H548.23H546.23V408.827H548.23Z" fill="black" mask="url(#path-33-inside-17_1089_182)"/>
<mask id="path-35-inside-18_1089_182" fill="white">
<path d="M0.199219 408.827V399.378Z"/>
</mask>
<path d="M-1.80078 408.827C-1.80078 409.931 -0.905351 410.827 0.199219 410.827C1.30379 410.827 2.19922 409.931 2.19922 408.827H0.199219H-1.80078ZM2.19922 399.378C2.19922 398.273 1.30379 397.378 0.199219 397.378C-0.905351 397.378 -1.80078 398.273 -1.80078 399.378H0.199219H2.19922ZM0.199219 408.827H2.19922V399.378H0.199219H-1.80078V408.827H0.199219Z" fill="black" mask="url(#path-35-inside-18_1089_182)"/>
<mask id="path-37-inside-19_1089_182" fill="white">
<path d="M0.199219 408.827H548.231Z"/>
</mask>
<path d="M0.199219 406.827C-0.905351 406.827 -1.80078 407.723 -1.80078 408.827C-1.80078 409.932 -0.905351 410.827 0.199219 410.827V408.827V406.827ZM548.231 410.827C549.335 410.827 550.231 409.932 550.231 408.827C550.231 407.723 549.335 406.827 548.231 406.827V408.827V410.827ZM0.199219 408.827V410.827H548.231V408.827V406.827H0.199219V408.827Z" fill="black" mask="url(#path-37-inside-19_1089_182)"/>
<mask id="path-39-inside-20_1089_182" fill="white">
<path d="M538.781 399.378V161.268Z"/>
</mask>
<path d="M536.781 399.378C536.781 400.482 537.677 401.378 538.781 401.378C539.886 401.378 540.781 400.482 540.781 399.378H538.781H536.781ZM540.781 161.268C540.781 160.163 539.886 159.268 538.781 159.268C537.677 159.268 536.781 160.163 536.781 161.268H538.781H540.781ZM538.781 399.378H540.781V161.268H538.781H536.781V399.378H538.781Z" fill="black" mask="url(#path-39-inside-20_1089_182)"/>
<mask id="path-41-inside-21_1089_182" fill="white">
<path d="M538.781 161.268H548.23Z"/>
</mask>
<path d="M538.781 159.268C537.677 159.268 536.781 160.163 536.781 161.268C536.781 162.372 537.677 163.268 538.781 163.268V161.268V159.268ZM548.23 163.268C549.335 163.268 550.23 162.372 550.23 161.268C550.23 160.163 549.335 159.268 548.23 159.268V161.268V163.268ZM538.781 161.268V163.268H548.23V161.268V159.268H538.781V161.268Z" fill="black" mask="url(#path-41-inside-21_1089_182)"/>
<mask id="path-43-inside-22_1089_182" fill="white">
<path d="M538.781 399.378H548.23Z"/>
</mask>
<path d="M538.781 397.378C537.677 397.378 536.781 398.273 536.781 399.378C536.781 400.482 537.677 401.378 538.781 401.378V399.378V397.378ZM548.23 401.378C549.335 401.378 550.23 400.482 550.23 399.378C550.23 398.273 549.335 397.378 548.23 397.378V399.378V401.378ZM538.781 399.378V401.378H548.23V399.378V397.378H538.781V399.378Z" fill="black" mask="url(#path-43-inside-22_1089_182)"/>
<mask id="path-45-inside-23_1089_182" fill="white">
<path d="M529.332 89.457V151.819Z"/>
</mask>
<path d="M531.332 89.457C531.332 88.3525 530.437 87.457 529.332 87.457C528.227 87.457 527.332 88.3525 527.332 89.457H529.332H531.332ZM527.332 151.819C527.332 152.924 528.227 153.819 529.332 153.819C530.437 153.819 531.332 152.924 531.332 151.819H529.332H527.332ZM529.332 89.457H527.332V151.819H529.332H531.332V89.457H529.332Z" fill="black" mask="url(#path-45-inside-23_1089_182)"/>
<mask id="path-47-inside-24_1089_182" fill="white">
<path d="M538.781 80.0078L529.332 89.4566Z"/>
</mask>
<path d="M540.195 81.422C540.976 80.641 540.976 79.3746 540.195 78.5936C539.414 77.8126 538.148 77.8126 537.367 78.5936L538.781 80.0078L540.195 81.422ZM527.918 88.0424C527.137 88.8235 527.137 90.0898 527.918 90.8708C528.699 91.6519 529.965 91.6519 530.746 90.8708L529.332 89.4566L527.918 88.0424ZM538.781 80.0078L537.367 78.5936L527.918 88.0424L529.332 89.4566L530.746 90.8708L540.195 81.422L538.781 80.0078Z" fill="black" mask="url(#path-47-inside-24_1089_182)"/>
<mask id="path-49-inside-25_1089_182" fill="white">
<path d="M538.781 151.82V80.0078Z"/>
</mask>
<path d="M536.781 151.82C536.781 152.925 537.677 153.82 538.781 153.82C539.886 153.82 540.781 152.925 540.781 151.82H538.781H536.781ZM540.781 80.0078C540.781 78.9032 539.886 78.0078 538.781 78.0078C537.677 78.0078 536.781 78.9032 536.781 80.0078H538.781H540.781ZM538.781 151.82H540.781V80.0078H538.781H536.781V151.82H538.781Z" fill="black" mask="url(#path-49-inside-25_1089_182)"/>
<mask id="path-51-inside-26_1089_182" fill="white">
<path d="M538.402 227.031L538.78 227.409Z"/>
</mask>
<path d="M539.817 225.617C539.036 224.836 537.769 224.836 536.988 225.617C536.207 226.398 536.207 227.664 536.988 228.445L538.402 227.031L539.817 225.617ZM537.366 228.824C538.147 229.605 539.414 229.605 540.195 228.824C540.976 228.043 540.976 226.776 540.195 225.995L538.78 227.409L537.366 228.824ZM538.402 227.031L536.988 228.445L537.366 228.824L538.78 227.409L540.195 225.995L539.817 225.617L538.402 227.031Z" fill="black" mask="url(#path-51-inside-26_1089_182)"/>
<mask id="path-53-inside-27_1089_182" fill="white">
<path d="M538.78 333.236L538.402 333.614Z"/>
</mask>
<path d="M540.195 334.651C540.976 333.869 540.976 332.603 540.195 331.822C539.414 331.041 538.147 331.041 537.366 331.822L538.78 333.236L540.195 334.651ZM536.988 332.2C536.207 332.981 536.207 334.248 536.988 335.029C537.769 335.81 539.036 335.81 539.817 335.029L538.402 333.614L536.988 332.2ZM538.78 333.236L537.366 331.822L536.988 332.2L538.402 333.614L539.817 335.029L540.195 334.651L538.78 333.236Z" fill="black" mask="url(#path-53-inside-27_1089_182)"/>
<mask id="path-55-inside-28_1089_182" fill="white">
<path d="M538.78 227.409L538.402 227.031Z"/>
</mask>
<path d="M537.366 228.824C538.147 229.605 539.414 229.604 540.195 228.823C540.976 228.042 540.976 226.776 540.194 225.995L538.78 227.409L537.366 228.824ZM539.816 225.617C539.035 224.836 537.769 224.836 536.988 225.617C536.207 226.398 536.207 227.665 536.988 228.446L538.402 227.031L539.816 225.617ZM538.78 227.409L540.194 225.995L539.816 225.617L538.402 227.031L536.988 228.446L537.366 228.824L538.78 227.409Z" fill="black" mask="url(#path-55-inside-28_1089_182)"/>
<mask id="path-57-inside-29_1089_182" fill="white">
<path d="M10.0264 227.031L9.64844 227.409Z"/>
</mask>
<path d="M11.4406 228.445C12.2217 227.664 12.2216 226.398 11.4406 225.617C10.6595 224.836 9.39316 224.836 8.61214 225.617L10.0264 227.031L11.4406 228.445ZM8.23419 225.995C7.45316 226.776 7.45319 228.042 8.23426 228.823C9.01533 229.604 10.2817 229.604 11.0627 228.823L9.64844 227.409L8.23419 225.995ZM10.0264 227.031L8.61214 225.617L8.23419 225.995L9.64844 227.409L11.0627 228.823L11.4406 228.445L10.0264 227.031Z" fill="black" mask="url(#path-57-inside-29_1089_182)"/>
<mask id="path-59-inside-30_1089_182" fill="white">
<path d="M9.64844 227.409H10.0275Z"/>
</mask>
<path d="M9.64844 225.409C8.54387 225.409 7.64844 226.305 7.64844 227.409C7.64844 228.514 8.54387 229.409 9.64844 229.409V227.409V225.409ZM10.0275 229.409C11.1321 229.409 12.0275 228.514 12.0275 227.409C12.0275 226.305 11.1321 225.409 10.0275 225.409V227.409V229.409ZM9.64844 227.409V229.409H10.0275V227.409V225.409H9.64844V227.409Z" fill="black" mask="url(#path-59-inside-30_1089_182)"/>
<mask id="path-61-inside-31_1089_182" fill="white">
<path d="M538.402 227.409H538.781Z"/>
</mask>
<path d="M538.402 225.409C537.298 225.409 536.402 226.305 536.402 227.409C536.402 228.514 537.298 229.409 538.402 229.409V227.409V225.409ZM538.781 229.409C539.886 229.409 540.781 228.514 540.781 227.409C540.781 226.305 539.886 225.409 538.781 225.409V227.409V229.409ZM538.402 227.409V229.409H538.781V227.409V225.409H538.402V227.409Z" fill="black" mask="url(#path-61-inside-31_1089_182)"/>
<mask id="path-63-inside-32_1089_182" fill="white">
<path d="M19.4727 52.0391H528.953Z"/>
</mask>
<path d="M19.4727 50.0391C18.3681 50.0391 17.4727 50.9345 17.4727 52.0391C17.4727 53.1436 18.3681 54.0391 19.4727 54.0391V52.0391V50.0391ZM528.953 54.0391C530.058 54.0391 530.953 53.1436 530.953 52.0391C530.953 50.9345 530.058 50.0391 528.953 50.0391V52.0391V54.0391ZM19.4727 52.0391V54.0391H528.953V52.0391V50.0391H19.4727V52.0391Z" fill="black" mask="url(#path-63-inside-32_1089_182)"/>
<mask id="path-65-inside-33_1089_182" fill="white">
<path d="M528.953 52.0391V80.0076Z"/>
</mask>
<path d="M530.953 52.0391C530.953 50.9345 530.058 50.0391 528.953 50.0391C527.849 50.0391 526.953 50.9345 526.953 52.0391H528.953H530.953ZM526.953 80.0076C526.953 81.1121 527.849 82.0076 528.953 82.0076C530.058 82.0076 530.953 81.1121 530.953 80.0076H528.953H526.953ZM528.953 52.0391H526.953V80.0076H528.953H530.953V52.0391H528.953Z" fill="black" mask="url(#path-65-inside-33_1089_182)"/>
<mask id="path-67-inside-34_1089_182" fill="white">
<path d="M528.953 89.457V91.3475Z"/>
</mask>
<path d="M530.953 89.457C530.953 88.3525 530.058 87.457 528.953 87.457C527.849 87.457 526.953 88.3525 526.953 89.457H528.953H530.953ZM526.953 91.3475C526.953 92.452 527.849 93.3475 528.953 93.3475C530.058 93.3475 530.953 92.452 530.953 91.3475H528.953H526.953ZM528.953 89.457H526.953V91.3475H528.953H530.953V89.457H528.953Z" fill="black" mask="url(#path-67-inside-34_1089_182)"/>
<mask id="path-69-inside-35_1089_182" fill="white">
<path d="M528.953 89.458V89.8363Z"/>
</mask>
<path d="M530.953 89.458C530.953 88.3534 530.058 87.458 528.953 87.458C527.849 87.458 526.953 88.3534 526.953 89.458H528.953H530.953ZM526.953 89.8363C526.953 90.9409 527.849 91.8363 528.953 91.8363C530.058 91.8363 530.953 90.9409 530.953 89.8363H528.953H526.953ZM528.953 89.458H526.953V89.8363H528.953H530.953V89.458H528.953Z" fill="black" mask="url(#path-69-inside-35_1089_182)"/>
<mask id="path-71-inside-36_1089_182" fill="white">
<path d="M19.4727 91.3475V89.835Z"/>
</mask>
<path d="M17.4727 91.3475C17.4727 92.452 18.3681 93.3475 19.4727 93.3475C20.5772 93.3475 21.4727 92.452 21.4727 91.3475H19.4727H17.4727ZM21.4727 89.835C21.4727 88.7304 20.5772 87.835 19.4727 87.835C18.3681 87.835 17.4727 88.7304 17.4727 89.835H19.4727H21.4727ZM19.4727 91.3475H21.4727V89.835H19.4727H17.4727V91.3475H19.4727Z" fill="black" mask="url(#path-71-inside-36_1089_182)"/>
<mask id="path-73-inside-37_1089_182" fill="white">
<path d="M19.4727 80.0076V52.0391Z"/>
</mask>
<path d="M17.4727 80.0076C17.4727 81.1121 18.3681 82.0076 19.4727 82.0076C20.5772 82.0076 21.4727 81.1121 21.4727 80.0076H19.4727H17.4727ZM21.4727 52.0391C21.4727 50.9345 20.5772 50.0391 19.4727 50.0391C18.3681 50.0391 17.4727 50.9345 17.4727 52.0391H19.4727H21.4727ZM19.4727 80.0076H21.4727V52.0391H19.4727H17.4727V80.0076H19.4727Z" fill="black" mask="url(#path-73-inside-37_1089_182)"/>
<mask id="path-75-inside-38_1089_182" fill="white">
<path d="M19.0977 399.001V399.378Z"/>
</mask>
<path d="M21.0977 399.001C21.0977 397.896 20.2022 397.001 19.0977 397.001C17.9931 397.001 17.0977 397.896 17.0977 399.001H19.0977H21.0977ZM17.0977 399.378C17.0977 400.483 17.9931 401.378 19.0977 401.378C20.2022 401.378 21.0977 400.483 21.0977 399.378H19.0977H17.0977ZM19.0977 399.001H17.0977V399.378H19.0977H21.0977V399.001H19.0977Z" fill="black" mask="url(#path-75-inside-38_1089_182)"/>
<mask id="path-77-inside-39_1089_182" fill="white">
<path d="M9.64844 333.236L10.0264 333.614Z"/>
</mask>
<path d="M11.0627 331.822C10.2817 331.041 9.01533 331.041 8.23426 331.822C7.45319 332.603 7.45316 333.869 8.23419 334.651L9.64844 333.236L11.0627 331.822ZM8.61214 335.028C9.39316 335.81 10.6595 335.81 11.4406 335.029C12.2216 334.248 12.2217 332.981 11.4406 332.2L10.0264 333.614L8.61214 335.028ZM9.64844 333.236L8.23419 334.651L8.61214 335.028L10.0264 333.614L11.4406 332.2L11.0627 331.822L9.64844 333.236Z" fill="black" mask="url(#path-77-inside-39_1089_182)"/>
<mask id="path-79-inside-40_1089_182" fill="white">
<path d="M10.0265 227.031L9.64844 227.409Z"/>
</mask>
<path d="M11.4408 228.445C12.2218 227.664 12.2218 226.398 11.4407 225.617C10.6596 224.836 9.39331 224.836 8.61228 225.617L10.0265 227.031L11.4408 228.445ZM8.23419 225.995C7.45316 226.776 7.45319 228.043 8.23426 228.824C9.01533 229.605 10.2817 229.605 11.0627 228.824L9.64844 227.409L8.23419 225.995ZM10.0265 227.031L8.61228 225.617L8.23419 225.995L9.64844 227.409L11.0627 228.824L11.4408 228.445L10.0265 227.031Z" fill="black" mask="url(#path-79-inside-40_1089_182)"/>
<mask id="path-81-inside-41_1089_182" fill="white">
<path d="M19.0977 89.457V151.819Z"/>
</mask>
<path d="M21.0977 89.457C21.0977 88.3525 20.2022 87.457 19.0977 87.457C17.9931 87.457 17.0977 88.3525 17.0977 89.457H19.0977H21.0977ZM17.0977 151.819C17.0977 152.924 17.9931 153.819 19.0977 153.819C20.2022 153.819 21.0977 152.924 21.0977 151.819H19.0977H17.0977ZM19.0977 89.457H17.0977V151.819H19.0977H21.0977V89.457H19.0977Z" fill="black" mask="url(#path-81-inside-41_1089_182)"/>
<mask id="path-83-inside-42_1089_182" fill="white">
<path d="M19.0977 161.268V161.645Z"/>
</mask>
<path d="M21.0977 161.268C21.0977 160.163 20.2022 159.268 19.0977 159.268C17.9931 159.268 17.0977 160.163 17.0977 161.268H19.0977H21.0977ZM17.0977 161.645C17.0977 162.749 17.9931 163.645 19.0977 163.645C20.2022 163.645 21.0977 162.749 21.0977 161.645H19.0977H17.0977ZM19.0977 161.268H17.0977V161.645H19.0977H21.0977V161.268H19.0977Z" fill="black" mask="url(#path-83-inside-42_1089_182)"/>
<mask id="path-85-inside-43_1089_182" fill="white">
<path d="M9.64844 80.0078L19.0972 89.4566Z"/>
</mask>
<path d="M11.0627 78.5936C10.2816 77.8126 9.01527 77.8126 8.23422 78.5936C7.45318 79.3746 7.45318 80.641 8.23422 81.422L9.64844 80.0078L11.0627 78.5936ZM17.683 90.8708C18.4641 91.6519 19.7304 91.6519 20.5115 90.8708C21.2925 90.0898 21.2925 88.8235 20.5115 88.0424L19.0972 89.4566L17.683 90.8708ZM9.64844 80.0078L8.23422 81.422L17.683 90.8708L19.0972 89.4566L20.5115 88.0424L11.0627 78.5936L9.64844 80.0078Z" fill="black" mask="url(#path-85-inside-43_1089_182)"/>
<mask id="path-87-inside-44_1089_182" fill="white">
<path d="M9.64844 151.82V80.0078Z"/>
</mask>
<path d="M7.64844 151.82C7.64844 152.925 8.54387 153.82 9.64844 153.82C10.753 153.82 11.6484 152.925 11.6484 151.82H9.64844H7.64844ZM11.6484 80.0078C11.6484 78.9032 10.753 78.0078 9.64844 78.0078C8.54387 78.0078 7.64844 78.9032 7.64844 80.0078H9.64844H11.6484ZM9.64844 151.82H11.6484V80.0078H9.64844H7.64844V151.82H9.64844Z" fill="black" mask="url(#path-87-inside-44_1089_182)"/>
<mask id="path-89-inside-45_1089_182" fill="white">
<path d="M538.402 333.614L538.78 333.236Z"/>
</mask>
<path d="M536.988 332.2C536.207 332.981 536.207 334.248 536.988 335.029C537.769 335.81 539.036 335.81 539.817 335.029L538.402 333.614L536.988 332.2ZM540.195 334.651C540.976 333.869 540.976 332.603 540.195 331.822C539.414 331.041 538.147 331.041 537.366 331.822L538.78 333.236L540.195 334.651ZM538.402 333.614L539.817 335.029L540.195 334.651L538.78 333.236L537.366 331.822L536.988 332.2L538.402 333.614Z" fill="black" mask="url(#path-89-inside-45_1089_182)"/>
<mask id="path-91-inside-46_1089_182" fill="white">
<path d="M9.64844 333.236L10.0264 333.614Z"/>
</mask>
<path d="M11.0627 331.822C10.2817 331.041 9.01533 331.041 8.23426 331.822C7.45319 332.603 7.45316 333.869 8.23419 334.651L9.64844 333.236L11.0627 331.822ZM8.61214 335.028C9.39316 335.81 10.6595 335.81 11.4406 335.029C12.2216 334.248 12.2217 332.981 11.4406 332.2L10.0264 333.614L8.61214 335.028ZM9.64844 333.236L8.23419 334.651L8.61214 335.028L10.0264 333.614L11.4406 332.2L11.0627 331.822L9.64844 333.236Z" fill="black" mask="url(#path-91-inside-46_1089_182)"/>
<mask id="path-93-inside-47_1089_182" fill="white">
<path d="M548.23 161.268V151.819Z"/>
</mask>
<path d="M546.23 161.268C546.23 162.373 547.126 163.268 548.23 163.268C549.335 163.268 550.23 162.373 550.23 161.268H548.23H546.23ZM550.23 151.819C550.23 150.715 549.335 149.819 548.23 149.819C547.126 149.819 546.23 150.715 546.23 151.819H548.23H550.23ZM548.23 161.268H550.23V151.819H548.23H546.23V161.268H548.23Z" fill="black" mask="url(#path-93-inside-47_1089_182)"/>
<mask id="path-95-inside-48_1089_182" fill="white">
<path d="M19.4727 161.644V161.266Z"/>
</mask>
<path d="M17.4727 161.644C17.4727 162.749 18.3681 163.644 19.4727 163.644C20.5772 163.644 21.4727 162.749 21.4727 161.644H19.4727H17.4727ZM21.4727 161.266C21.4727 160.161 20.5772 159.266 19.4727 159.266C18.3681 159.266 17.4727 160.161 17.4727 161.266H19.4727H21.4727ZM19.4727 161.644H21.4727V161.266H19.4727H17.4727V161.644H19.4727Z" fill="black" mask="url(#path-95-inside-48_1089_182)"/>
<mask id="path-97-inside-49_1089_182" fill="white">
<path d="M19.4727 151.821V89.835Z"/>
</mask>
<path d="M17.4727 151.821C17.4727 152.925 18.3681 153.821 19.4727 153.821C20.5772 153.821 21.4727 152.925 21.4727 151.821H19.4727H17.4727ZM21.4727 89.835C21.4727 88.7304 20.5772 87.835 19.4727 87.835C18.3681 87.835 17.4727 88.7304 17.4727 89.835H19.4727H21.4727ZM19.4727 151.821H21.4727V89.835H19.4727H17.4727V151.821H19.4727Z" fill="black" mask="url(#path-97-inside-49_1089_182)"/>
<mask id="path-99-inside-50_1089_182" fill="white">
<path d="M528.953 89.835V151.821Z"/>
</mask>
<path d="M530.953 89.835C530.953 88.7304 530.058 87.835 528.953 87.835C527.849 87.835 526.953 88.7304 526.953 89.835H528.953H530.953ZM526.953 151.821C526.953 152.925 527.849 153.821 528.953 153.821C530.058 153.821 530.953 152.925 530.953 151.821H528.953H526.953ZM528.953 89.835H526.953V151.821H528.953H530.953V89.835H528.953Z" fill="black" mask="url(#path-99-inside-50_1089_182)"/>
<mask id="path-101-inside-51_1089_182" fill="white">
<path d="M19.4727 89.835H528.953Z"/>
</mask>
<path d="M19.4727 87.835C18.3681 87.835 17.4727 88.7304 17.4727 89.835C17.4727 90.9395 18.3681 91.835 19.4727 91.835V89.835V87.835ZM528.953 91.835C530.058 91.835 530.953 90.9395 530.953 89.835C530.953 88.7304 530.058 87.835 528.953 87.835V89.835V91.835ZM19.4727 89.835V91.835H528.953V89.835V87.835H19.4727V89.835Z" fill="black" mask="url(#path-101-inside-51_1089_182)"/>
<mask id="path-103-inside-52_1089_182" fill="white">
<path d="M10.0234 161.646H538.401Z"/>
</mask>
<path d="M10.0234 159.646C8.91887 159.646 8.02344 160.541 8.02344 161.646C8.02344 162.75 8.91887 163.646 10.0234 163.646V161.646V159.646ZM538.401 163.646C539.506 163.646 540.401 162.75 540.401 161.646C540.401 160.541 539.506 159.646 538.401 159.646V161.646V163.646ZM10.0234 161.646V163.646H538.401V161.646V159.646H10.0234V161.646Z" fill="black" mask="url(#path-103-inside-52_1089_182)"/>
<mask id="path-105-inside-53_1089_182" fill="white">
<path d="M538.402 161.646V399Z"/>
</mask>
<path d="M540.402 161.646C540.402 160.541 539.507 159.646 538.402 159.646C537.298 159.646 536.402 160.541 536.402 161.646H538.402H540.402ZM536.402 399C536.402 400.104 537.298 401 538.402 401C539.507 401 540.402 400.104 540.402 399H538.402H536.402ZM538.402 161.646H536.402V399H538.402H540.402V161.646H538.402Z" fill="black" mask="url(#path-105-inside-53_1089_182)"/>
<mask id="path-107-inside-54_1089_182" fill="white">
<path d="M10.0234 399V161.646Z"/>
</mask>
<path d="M8.02344 399C8.02344 400.104 8.91887 401 10.0234 401C11.128 401 12.0234 400.104 12.0234 399H10.0234H8.02344ZM12.0234 161.646C12.0234 160.541 11.128 159.646 10.0234 159.646C8.91887 159.646 8.02344 160.541 8.02344 161.646H10.0234H12.0234ZM10.0234 399H12.0234V161.646H10.0234H8.02344V399H10.0234Z" fill="black" mask="url(#path-107-inside-54_1089_182)"/>
<mask id="path-109-inside-55_1089_182" fill="white">
<path d="M538.401 399H10.0234Z"/>
</mask>
<path d="M538.401 401C539.506 401 540.401 400.105 540.401 399C540.401 397.895 539.506 397 538.401 397V399V401ZM10.0234 397C8.91887 397 8.02344 397.895 8.02344 399C8.02344 400.105 8.91887 401 10.0234 401V399V397ZM538.401 399V397H10.0234V399V401H538.401V399Z" fill="black" mask="url(#path-109-inside-55_1089_182)"/>
<mask id="path-111-inside-56_1089_182" fill="white">
<path d="M528.953 10.4648V42.2129Z"/>
</mask>
<path d="M530.953 10.4648C530.953 9.36027 530.058 8.46484 528.953 8.46484C527.849 8.46484 526.953 9.36027 526.953 10.4648H528.953H530.953ZM526.953 42.2129C526.953 43.3174 527.849 44.2129 528.953 44.2129C530.058 44.2129 530.953 43.3174 530.953 42.2129H528.953H526.953ZM528.953 10.4648H526.953V42.2129H528.953H530.953V10.4648H528.953Z" fill="black" mask="url(#path-111-inside-56_1089_182)"/>
<mask id="path-113-inside-57_1089_182" fill="white">
<path d="M528.953 52.0391V53.5524Z"/>
</mask>
<path d="M530.953 52.0391C530.953 50.9345 530.058 50.0391 528.953 50.0391C527.849 50.0391 526.953 50.9345 526.953 52.0391H528.953H530.953ZM526.953 53.5524C526.953 54.657 527.849 55.5524 528.953 55.5524C530.058 55.5524 530.953 54.657 530.953 53.5524H528.953H526.953ZM528.953 52.0391H526.953V53.5524H528.953H530.953V52.0391H528.953Z" fill="black" mask="url(#path-113-inside-57_1089_182)"/>
<mask id="path-115-inside-58_1089_182" fill="white">
<path d="M19.4727 10.4648H528.953Z"/>
</mask>
<path d="M19.4727 8.46484C18.3681 8.46484 17.4727 9.36027 17.4727 10.4648C17.4727 11.5694 18.3681 12.4648 19.4727 12.4648V10.4648V8.46484ZM528.953 12.4648C530.058 12.4648 530.953 11.5694 530.953 10.4648C530.953 9.36027 530.058 8.46484 528.953 8.46484V10.4648V12.4648ZM19.4727 10.4648V12.4648H528.953V10.4648V8.46484H19.4727V10.4648Z" fill="black" mask="url(#path-115-inside-58_1089_182)"/>
<mask id="path-117-inside-59_1089_182" fill="white">
<path d="M19.4727 53.5524V52.0391Z"/>
</mask>
<path d="M17.4727 53.5524C17.4727 54.657 18.3681 55.5524 19.4727 55.5524C20.5772 55.5524 21.4727 54.657 21.4727 53.5524H19.4727H17.4727ZM21.4727 52.0391C21.4727 50.9345 20.5772 50.0391 19.4727 50.0391C18.3681 50.0391 17.4727 50.9345 17.4727 52.0391H19.4727H21.4727ZM19.4727 53.5524H21.4727V52.0391H19.4727H17.4727V53.5524H19.4727Z" fill="black" mask="url(#path-117-inside-59_1089_182)"/>
<mask id="path-119-inside-60_1089_182" fill="white">
<path d="M19.4727 42.2129V10.4648Z"/>
</mask>
<path d="M17.4727 42.2129C17.4727 43.3174 18.3681 44.2129 19.4727 44.2129C20.5772 44.2129 21.4727 43.3174 21.4727 42.2129H19.4727H17.4727ZM21.4727 10.4648C21.4727 9.36027 20.5772 8.46484 19.4727 8.46484C18.3681 8.46484 17.4727 9.36027 17.4727 10.4648H19.4727H21.4727ZM19.4727 42.2129H21.4727V10.4648H19.4727H17.4727V42.2129H19.4727Z" fill="black" mask="url(#path-119-inside-60_1089_182)"/>
<mask id="path-121-inside-61_1089_182" fill="white">
<path d="M19.4727 399.379V399.001Z"/>
</mask>
<path d="M17.4727 399.379C17.4727 400.484 18.3681 401.379 19.4727 401.379C20.5772 401.379 21.4727 400.484 21.4727 399.379H19.4727H17.4727ZM21.4727 399.001C21.4727 397.896 20.5772 397.001 19.4727 397.001C18.3681 397.001 17.4727 397.896 17.4727 399.001H19.4727H21.4727ZM19.4727 399.379H21.4727V399.001H19.4727H17.4727V399.379H19.4727Z" fill="black" mask="url(#path-121-inside-61_1089_182)"/>
<mask id="path-123-inside-62_1089_182" fill="white">
<path d="M19.0977 53.5522V51.6611Z"/>
</mask>
<path d="M17.0977 53.5522C17.0977 54.6567 17.9931 55.5522 19.0977 55.5522C20.2022 55.5522 21.0977 54.6567 21.0977 53.5522H19.0977H17.0977ZM21.0977 51.6611C21.0977 50.5566 20.2022 49.6611 19.0977 49.6611C17.9931 49.6611 17.0977 50.5566 17.0977 51.6611H19.0977H21.0977ZM19.0977 53.5522H21.0977V51.6611H19.0977H17.0977V53.5522H19.0977Z" fill="black" mask="url(#path-123-inside-62_1089_182)"/>
<mask id="path-125-inside-63_1089_182" fill="white">
<path d="M19.0977 42.2129V10.0869Z"/>
</mask>
<path d="M17.0977 42.2129C17.0977 43.3175 17.9931 44.2129 19.0977 44.2129C20.2022 44.2129 21.0977 43.3175 21.0977 42.2129H19.0977H17.0977ZM21.0977 10.0869C21.0977 8.98234 20.2022 8.08691 19.0977 8.08691C17.9931 8.08691 17.0977 8.98234 17.0977 10.0869H19.0977H21.0977ZM19.0977 42.2129H21.0977V10.0869H19.0977H17.0977V42.2129H19.0977Z" fill="black" mask="url(#path-125-inside-63_1089_182)"/>
<mask id="path-127-inside-64_1089_182" fill="white">
<path d="M19.0972 10.0865L9.64844 0.637695Z"/>
</mask>
<path d="M17.683 11.5007C18.4641 12.2818 19.7304 12.2818 20.5115 11.5007C21.2925 10.7197 21.2925 9.45335 20.5115 8.6723L19.0972 10.0865L17.683 11.5007ZM11.0627 -0.776518C10.2816 -1.55757 9.01527 -1.55757 8.23422 -0.776519C7.45318 0.00452923 7.45318 1.27086 8.23422 2.05191L9.64844 0.637695L11.0627 -0.776518ZM19.0972 10.0865L20.5115 8.6723L11.0627 -0.776518L9.64844 0.637695L8.23422 2.05191L17.683 11.5007L19.0972 10.0865Z" fill="black" mask="url(#path-127-inside-64_1089_182)"/>
<mask id="path-129-inside-65_1089_182" fill="white">
<path d="M9.64844 0.637695V53.5525Z"/>
</mask>
<path d="M11.6484 0.637695C11.6484 -0.466874 10.753 -1.3623 9.64844 -1.3623C8.54387 -1.3623 7.64844 -0.466874 7.64844 0.637695H9.64844H11.6484ZM7.64844 53.5525C7.64844 54.6571 8.54387 55.5525 9.64844 55.5525C10.753 55.5525 11.6484 54.6571 11.6484 53.5525H9.64844H7.64844ZM9.64844 0.637695H7.64844V53.5525H9.64844H11.6484V0.637695H9.64844Z" fill="black" mask="url(#path-129-inside-65_1089_182)"/>
<mask id="path-131-inside-66_1089_182" fill="white">
<path d="M9.64844 42.2129H538.782Z"/>
</mask>
<path d="M9.64844 40.2129C8.54387 40.2129 7.64844 41.1083 7.64844 42.2129C7.64844 43.3175 8.54387 44.2129 9.64844 44.2129V42.2129V40.2129ZM538.782 44.2129C539.887 44.2129 540.782 43.3175 540.782 42.2129C540.782 41.1083 539.887 40.2129 538.782 40.2129V42.2129V44.2129ZM9.64844 42.2129V44.2129H538.782V42.2129V40.2129H9.64844V42.2129Z" fill="black" mask="url(#path-131-inside-66_1089_182)"/>
<mask id="path-133-inside-67_1089_182" fill="white">
<path d="M19.0972 51.6617L9.64844 42.2129Z"/>
</mask>
<path d="M17.683 53.0759C18.4641 53.857 19.7304 53.857 20.5115 53.0759C21.2925 52.2949 21.2925 51.0286 20.5115 50.2475L19.0972 51.6617L17.683 53.0759ZM11.0627 40.7987C10.2816 40.0176 9.01527 40.0176 8.23423 40.7987C7.45318 41.5797 7.45317 42.8461 8.23422 43.6271L9.64844 42.2129L11.0627 40.7987ZM19.0972 51.6617L20.5115 50.2475L11.0627 40.7987L9.64844 42.2129L8.23422 43.6271L17.683 53.0759L19.0972 51.6617Z" fill="black" mask="url(#path-133-inside-67_1089_182)"/>
<mask id="path-135-inside-68_1089_182" fill="white">
<path d="M529.334 51.6611H19.0977Z"/>
</mask>
<path d="M529.334 53.6611C530.438 53.6611 531.334 52.7657 531.334 51.6611C531.334 50.5566 530.438 49.6611 529.334 49.6611V51.6611V53.6611ZM19.0977 49.6611C17.9931 49.6611 17.0977 50.5566 17.0977 51.6611C17.0977 52.7657 17.9931 53.6611 19.0977 53.6611V51.6611V49.6611ZM529.334 51.6611V49.6611H19.0977V51.6611V53.6611H529.334V51.6611Z" fill="black" mask="url(#path-135-inside-68_1089_182)"/>
<mask id="path-137-inside-69_1089_182" fill="white">
<path d="M538.781 42.2129L529.332 51.6617Z"/>
</mask>
<path d="M540.195 43.6271C540.976 42.8461 540.976 41.5797 540.195 40.7987C539.414 40.0176 538.148 40.0176 537.367 40.7987L538.781 42.2129L540.195 43.6271ZM527.918 50.2475C527.137 51.0286 527.137 52.2949 527.918 53.0759C528.699 53.857 529.965 53.857 530.746 53.0759L529.332 51.6617L527.918 50.2475ZM538.781 42.2129L537.367 40.7987L527.918 50.2475L529.332 51.6617L530.746 53.0759L540.195 43.6271L538.781 42.2129Z" fill="black" mask="url(#path-137-inside-69_1089_182)"/>
<mask id="path-139-inside-70_1089_182" fill="white">
<path d="M529.332 10.0865L538.781 0.637695Z"/>
</mask>
<path d="M527.918 8.6723C527.137 9.45335 527.137 10.7197 527.918 11.5007C528.699 12.2818 529.965 12.2818 530.746 11.5007L529.332 10.0865L527.918 8.6723ZM540.195 2.05191C540.976 1.27086 540.976 0.00452923 540.195 -0.776519C539.414 -1.55757 538.148 -1.55757 537.367 -0.776518L538.781 0.637695L540.195 2.05191ZM529.332 10.0865L530.746 11.5007L540.195 2.05191L538.781 0.637695L537.367 -0.776518L527.918 8.6723L529.332 10.0865Z" fill="black" mask="url(#path-139-inside-70_1089_182)"/>
<mask id="path-141-inside-71_1089_182" fill="white">
<path d="M529.332 53.5522V51.6611Z"/>
</mask>
<path d="M527.332 53.5522C527.332 54.6567 528.227 55.5522 529.332 55.5522C530.437 55.5522 531.332 54.6567 531.332 53.5522H529.332H527.332ZM531.332 51.6611C531.332 50.5566 530.437 49.6611 529.332 49.6611C528.227 49.6611 527.332 50.5566 527.332 51.6611H529.332H531.332ZM529.332 53.5522H531.332V51.6611H529.332H527.332V53.5522H529.332Z" fill="black" mask="url(#path-141-inside-71_1089_182)"/>
<mask id="path-143-inside-72_1089_182" fill="white">
<path d="M538.781 0.637695V53.5525Z"/>
</mask>
<path d="M540.781 0.637695C540.781 -0.466874 539.886 -1.3623 538.781 -1.3623C537.677 -1.3623 536.781 -0.466874 536.781 0.637695H538.781H540.781ZM536.781 53.5525C536.781 54.6571 537.677 55.5525 538.781 55.5525C539.886 55.5525 540.781 54.6571 540.781 53.5525H538.781H536.781ZM538.781 0.637695H536.781V53.5525H538.781H540.781V0.637695H538.781Z" fill="black" mask="url(#path-143-inside-72_1089_182)"/>
<mask id="path-145-inside-73_1089_182" fill="white">
<path d="M548.23 161.268V151.819Z"/>
</mask>
<path d="M546.23 161.268C546.23 162.373 547.126 163.268 548.23 163.268C549.335 163.268 550.23 162.373 550.23 161.268H548.23H546.23ZM550.23 151.819C550.23 150.715 549.335 149.819 548.23 149.819C547.126 149.819 546.23 150.715 546.23 151.819H548.23H550.23ZM548.23 161.268H550.23V151.819H548.23H546.23V161.268H548.23Z" fill="black" mask="url(#path-145-inside-73_1089_182)"/>
<mask id="path-147-inside-74_1089_182" fill="white">
<path d="M0.199219 161.268V151.819Z"/>
</mask>
<path d="M-1.80078 161.268C-1.80078 162.373 -0.905351 163.268 0.199219 163.268C1.30379 163.268 2.19922 162.373 2.19922 161.268H0.199219H-1.80078ZM2.19922 151.819C2.19922 150.715 1.30379 149.819 0.199219 149.819C-0.905351 149.819 -1.80078 150.715 -1.80078 151.819H0.199219H2.19922ZM0.199219 161.268H2.19922V151.819H0.199219H-1.80078V161.268H0.199219Z" fill="black" mask="url(#path-147-inside-74_1089_182)"/>
<mask id="path-149-inside-75_1089_182" fill="white">
<path d="M548.231 151.819H0.199219Z"/>
</mask>
<path d="M548.231 153.819C549.335 153.819 550.231 152.924 550.231 151.819C550.231 150.715 549.335 149.819 548.231 149.819V151.819V153.819ZM0.199219 149.819C-0.905351 149.819 -1.80078 150.715 -1.80078 151.819C-1.80078 152.924 -0.905351 153.819 0.199219 153.819V151.819V149.819ZM548.231 151.819V149.819H0.199219V151.819V153.819H548.231V151.819Z" fill="black" mask="url(#path-149-inside-75_1089_182)"/>
<mask id="path-151-inside-76_1089_182" fill="white">
<path d="M548.231 161.268H0.199219Z"/>
</mask>
<path d="M548.231 163.268C549.335 163.268 550.231 162.372 550.231 161.268C550.231 160.163 549.335 159.268 548.231 159.268V161.268V163.268ZM0.199219 159.268C-0.905351 159.268 -1.80078 160.163 -1.80078 161.268C-1.80078 162.372 -0.905351 163.268 0.199219 163.268V161.268V159.268ZM548.231 161.268V159.268H0.199219V161.268V163.268H548.231V161.268Z" fill="black" mask="url(#path-151-inside-76_1089_182)"/>
<mask id="path-153-inside-77_1089_182" fill="white">
<path d="M548.23 408.827V399.378Z"/>
</mask>
<path d="M546.23 408.827C546.23 409.931 547.126 410.827 548.23 410.827C549.335 410.827 550.23 409.931 550.23 408.827H548.23H546.23ZM550.23 399.378C550.23 398.273 549.335 397.378 548.23 397.378C547.126 397.378 546.23 398.273 546.23 399.378H548.23H550.23ZM548.23 408.827H550.23V399.378H548.23H546.23V408.827H548.23Z" fill="black" mask="url(#path-153-inside-77_1089_182)"/>
<mask id="path-155-inside-78_1089_182" fill="white">
<path d="M19.0977 91.347V89.457Z"/>
</mask>
<path d="M17.0977 91.347C17.0977 92.4516 17.9931 93.347 19.0977 93.347C20.2022 93.347 21.0977 92.4516 21.0977 91.347H19.0977H17.0977ZM21.0977 89.457C21.0977 88.3525 20.2022 87.457 19.0977 87.457C17.9931 87.457 17.0977 88.3525 17.0977 89.457H19.0977H21.0977ZM19.0977 91.347H21.0977V89.457H19.0977H17.0977V91.347H19.0977Z" fill="black" mask="url(#path-155-inside-78_1089_182)"/>
<mask id="path-157-inside-79_1089_182" fill="white">
<path d="M19.0977 80.0076V51.6611Z"/>
</mask>
<path d="M17.0977 80.0076C17.0977 81.1122 17.9931 82.0076 19.0977 82.0076C20.2022 82.0076 21.0977 81.1122 21.0977 80.0076H19.0977H17.0977ZM21.0977 51.6611C21.0977 50.5566 20.2022 49.6611 19.0977 49.6611C17.9931 49.6611 17.0977 50.5566 17.0977 51.6611H19.0977H21.0977ZM19.0977 80.0076H21.0977V51.6611H19.0977H17.0977V80.0076H19.0977Z" fill="black" mask="url(#path-157-inside-79_1089_182)"/>
<mask id="path-159-inside-80_1089_182" fill="white">
<path d="M9.64844 42.2129V91.3472Z"/>
</mask>
<path d="M11.6484 42.2129C11.6484 41.1083 10.753 40.2129 9.64844 40.2129C8.54387 40.2129 7.64844 41.1083 7.64844 42.2129H9.64844H11.6484ZM7.64844 91.3472C7.64844 92.4518 8.54387 93.3472 9.64844 93.3472C10.753 93.3472 11.6484 92.4518 11.6484 91.3472H9.64844H7.64844ZM9.64844 42.2129H7.64844V91.3472H9.64844H11.6484V42.2129H9.64844Z" fill="black" mask="url(#path-159-inside-80_1089_182)"/>
<mask id="path-161-inside-81_1089_182" fill="white">
<path d="M19.0972 51.6617L9.64844 42.2129Z"/>
</mask>
<path d="M17.683 53.0759C18.4641 53.857 19.7304 53.857 20.5115 53.0759C21.2925 52.2949 21.2925 51.0286 20.5115 50.2475L19.0972 51.6617L17.683 53.0759ZM11.0627 40.7987C10.2816 40.0176 9.01527 40.0176 8.23423 40.7987C7.45318 41.5797 7.45317 42.8461 8.23422 43.6271L9.64844 42.2129L11.0627 40.7987ZM19.0972 51.6617L20.5115 50.2475L11.0627 40.7987L9.64844 42.2129L8.23422 43.6271L17.683 53.0759L19.0972 51.6617Z" fill="black" mask="url(#path-161-inside-81_1089_182)"/>
<mask id="path-163-inside-82_1089_182" fill="white">
<path d="M0.199219 408.827V399.378Z"/>
</mask>
<path d="M-1.80078 408.827C-1.80078 409.931 -0.905351 410.827 0.199219 410.827C1.30379 410.827 2.19922 409.931 2.19922 408.827H0.199219H-1.80078ZM2.19922 399.378C2.19922 398.273 1.30379 397.378 0.199219 397.378C-0.905351 397.378 -1.80078 398.273 -1.80078 399.378H0.199219H2.19922ZM0.199219 408.827H2.19922V399.378H0.199219H-1.80078V408.827H0.199219Z" fill="black" mask="url(#path-163-inside-82_1089_182)"/>
<mask id="path-165-inside-83_1089_182" fill="white">
<path d="M0.199219 161.268V399.378Z"/>
</mask>
<path d="M2.19922 161.268C2.19922 160.163 1.30379 159.268 0.199219 159.268C-0.905351 159.268 -1.80078 160.163 -1.80078 161.268H0.199219H2.19922ZM-1.80078 399.378C-1.80078 400.482 -0.905351 401.378 0.199219 401.378C1.30379 401.378 2.19922 400.482 2.19922 399.378H0.199219H-1.80078ZM0.199219 161.268H-1.80078V399.378H0.199219H2.19922V161.268H0.199219Z" fill="black" mask="url(#path-165-inside-83_1089_182)"/>
<mask id="path-167-inside-84_1089_182" fill="white">
<path d="M548.23 399.378V161.268Z"/>
</mask>
<path d="M546.23 399.378C546.23 400.482 547.126 401.378 548.23 401.378C549.335 401.378 550.23 400.482 550.23 399.378H548.23H546.23ZM550.23 161.268C550.23 160.163 549.335 159.268 548.23 159.268C547.126 159.268 546.23 160.163 546.23 161.268H548.23H550.23ZM548.23 399.378H550.23V161.268H548.23H546.23V399.378H548.23Z" fill="black" mask="url(#path-167-inside-84_1089_182)"/>
<mask id="path-169-inside-85_1089_182" fill="white">
<path d="M538.782 0.637695H9.64844Z"/>
</mask>
<path d="M538.782 2.6377C539.887 2.6377 540.782 1.74226 540.782 0.637695C540.782 -0.466874 539.887 -1.3623 538.782 -1.3623V0.637695V2.6377ZM9.64844 -1.3623C8.54387 -1.3623 7.64844 -0.466874 7.64844 0.637695C7.64844 1.74226 8.54387 2.6377 9.64844 2.6377V0.637695V-1.3623ZM538.782 0.637695V-1.3623H9.64844V0.637695V2.6377H538.782V0.637695Z" fill="black" mask="url(#path-169-inside-85_1089_182)"/>
<mask id="path-171-inside-86_1089_182" fill="white">
<path d="M538.781 333.236H538.402Z"/>
</mask>
<path d="M538.781 335.236C539.886 335.236 540.781 334.341 540.781 333.236C540.781 332.132 539.886 331.236 538.781 331.236V333.236V335.236ZM538.402 331.236C537.298 331.236 536.402 332.132 536.402 333.236C536.402 334.341 537.298 335.236 538.402 335.236V333.236V331.236ZM538.781 333.236V331.236H538.402V333.236V335.236H538.781V333.236Z" fill="black" mask="url(#path-171-inside-86_1089_182)"/>
<mask id="path-173-inside-87_1089_182" fill="white">
<path d="M10.0275 333.236H9.64844Z"/>
</mask>
<path d="M10.0275 335.236C11.1321 335.236 12.0275 334.341 12.0275 333.236C12.0275 332.132 11.1321 331.236 10.0275 331.236V333.236V335.236ZM9.64844 331.236C8.54387 331.236 7.64844 332.132 7.64844 333.236C7.64844 334.341 8.54387 335.236 9.64844 335.236V333.236V331.236ZM10.0275 333.236V331.236H9.64844V333.236V335.236H10.0275V333.236Z" fill="black" mask="url(#path-173-inside-87_1089_182)"/>
<mask id="path-175-inside-88_1089_182" fill="white">
<path d="M538.782 480.638H9.64844Z"/>
</mask>
<path d="M538.782 482.638C539.887 482.638 540.782 481.742 540.782 480.638C540.782 479.533 539.887 478.638 538.782 478.638V480.638V482.638ZM9.64844 478.638C8.54387 478.638 7.64844 479.533 7.64844 480.638C7.64844 481.742 8.54387 482.638 9.64844 482.638V480.638V478.638ZM538.782 480.638V478.638H9.64844V480.638V482.638H538.782V480.638Z" fill="black" mask="url(#path-175-inside-88_1089_182)"/>
<mask id="path-177-inside-89_1089_182" fill="white">
<path d="M19.0977 471.189H529.334Z"/>
</mask>
<path d="M19.0977 469.189C17.9931 469.189 17.0977 470.085 17.0977 471.189C17.0977 472.294 17.9931 473.189 19.0977 473.189V471.189V469.189ZM529.334 473.189C530.438 473.189 531.334 472.294 531.334 471.189C531.334 470.085 530.438 469.189 529.334 469.189V471.189V473.189ZM19.0977 471.189V473.189H529.334V471.189V469.189H19.0977V471.189Z" fill="black" mask="url(#path-177-inside-89_1089_182)"/>
<mask id="path-179-inside-90_1089_182" fill="white">
<path d="M529.332 471.189L538.781 480.638Z"/>
</mask>
<path d="M530.746 469.775C529.965 468.994 528.699 468.994 527.918 469.775C527.137 470.556 527.137 471.823 527.918 472.604L529.332 471.189L530.746 469.775ZM537.367 482.052C538.148 482.834 539.414 482.834 540.195 482.052C540.976 481.271 540.976 480.005 540.195 479.224L538.781 480.638L537.367 482.052ZM529.332 471.189L527.918 472.604L537.367 482.052L538.781 480.638L540.195 479.224L530.746 469.775L529.332 471.189Z" fill="black" mask="url(#path-179-inside-90_1089_182)"/>
<mask id="path-181-inside-91_1089_182" fill="white">
<path d="M9.64844 480.638L19.0972 471.189Z"/>
</mask>
<path d="M8.23422 479.224C7.45318 480.005 7.45318 481.271 8.23422 482.052C9.01527 482.834 10.2816 482.834 11.0627 482.052L9.64844 480.638L8.23422 479.224ZM20.5115 472.604C21.2925 471.823 21.2925 470.556 20.5115 469.775C19.7304 468.994 18.4641 468.994 17.683 469.775L19.0972 471.189L20.5115 472.604ZM9.64844 480.638L11.0627 482.052L20.5115 472.604L19.0972 471.189L17.683 469.775L8.23422 479.224L9.64844 480.638Z" fill="black" mask="url(#path-181-inside-91_1089_182)"/>
<mask id="path-183-inside-92_1089_182" fill="white">
<path d="M529.332 508.984V480.638Z"/>
</mask>
<path d="M527.332 508.984C527.332 510.089 528.227 510.984 529.332 510.984C530.437 510.984 531.332 510.089 531.332 508.984H529.332H527.332ZM531.332 480.638C531.332 479.533 530.437 478.638 529.332 478.638C528.227 478.638 527.332 479.533 527.332 480.638H529.332H531.332ZM529.332 508.984H531.332V480.638H529.332H527.332V508.984H529.332Z" fill="black" mask="url(#path-183-inside-92_1089_182)"/>
<mask id="path-185-inside-93_1089_182" fill="white">
<path d="M529.332 471.189V469.299Z"/>
</mask>
<path d="M527.332 471.189C527.332 472.293 528.227 473.189 529.332 473.189C530.437 473.189 531.332 472.293 531.332 471.189H529.332H527.332ZM531.332 469.299C531.332 468.194 530.437 467.299 529.332 467.299C528.227 467.299 527.332 468.194 527.332 469.299H529.332H531.332ZM529.332 471.189H531.332V469.299H529.332H527.332V471.189H529.332Z" fill="black" mask="url(#path-185-inside-93_1089_182)"/>
<mask id="path-187-inside-94_1089_182" fill="white">
<path d="M538.781 469.299V518.433Z"/>
</mask>
<path d="M540.781 469.299C540.781 468.194 539.886 467.299 538.781 467.299C537.677 467.299 536.781 468.194 536.781 469.299H538.781H540.781ZM536.781 518.433C536.781 519.538 537.677 520.433 538.781 520.433C539.886 520.433 540.781 519.538 540.781 518.433H538.781H536.781ZM538.781 469.299H536.781V518.433H538.781H540.781V469.299H538.781Z" fill="black" mask="url(#path-187-inside-94_1089_182)"/>
<mask id="path-189-inside-95_1089_182" fill="white">
<path d="M538.781 518.433L529.332 508.984Z"/>
</mask>
<path d="M537.367 519.847C538.148 520.628 539.414 520.628 540.195 519.847C540.976 519.066 540.976 517.8 540.195 517.019L538.781 518.433L537.367 519.847ZM530.746 507.57C529.965 506.789 528.699 506.789 527.918 507.57C527.137 508.351 527.137 509.618 527.918 510.399L529.332 508.984L530.746 507.57ZM538.781 518.433L540.195 517.019L530.746 507.57L529.332 508.984L527.918 510.399L537.367 519.847L538.781 518.433Z" fill="black" mask="url(#path-189-inside-95_1089_182)"/>
<mask id="path-191-inside-96_1089_182" fill="white">
<path d="M9.64844 560.008L19.0972 550.56Z"/>
</mask>
<path d="M8.23422 558.594C7.45317 559.375 7.45318 560.642 8.23423 561.423C9.01528 562.204 10.2816 562.204 11.0627 561.423L9.64844 560.008L8.23422 558.594ZM20.5115 551.974C21.2925 551.193 21.2925 549.926 20.5115 549.145C19.7304 548.364 18.4641 548.364 17.683 549.145L19.0972 550.56L20.5115 551.974ZM9.64844 560.008L11.0627 561.423L20.5115 551.974L19.0972 550.56L17.683 549.145L8.23422 558.594L9.64844 560.008Z" fill="black" mask="url(#path-191-inside-96_1089_182)"/>
<mask id="path-193-inside-97_1089_182" fill="white">
<path d="M529.332 550.56L538.781 560.008Z"/>
</mask>
<path d="M530.746 549.145C529.965 548.364 528.699 548.364 527.918 549.145C527.137 549.926 527.137 551.193 527.918 551.974L529.332 550.56L530.746 549.145ZM537.367 561.423C538.148 562.204 539.414 562.204 540.195 561.423C540.976 560.642 540.976 559.375 540.195 558.594L538.781 560.008L537.367 561.423ZM529.332 550.56L527.918 551.974L537.367 561.423L538.781 560.008L540.195 558.594L530.746 549.145L529.332 550.56Z" fill="black" mask="url(#path-193-inside-97_1089_182)"/>
<mask id="path-195-inside-98_1089_182" fill="white">
<path d="M19.0977 550.56H529.334Z"/>
</mask>
<path d="M19.0977 548.56C17.9931 548.56 17.0977 549.455 17.0977 550.56C17.0977 551.664 17.9931 552.56 19.0977 552.56V550.56V548.56ZM529.334 552.56C530.438 552.56 531.334 551.664 531.334 550.56C531.334 549.455 530.438 548.56 529.334 548.56V550.56V552.56ZM19.0977 550.56V552.56H529.334V550.56V548.56H19.0977V550.56Z" fill="black" mask="url(#path-195-inside-98_1089_182)"/>
<mask id="path-197-inside-99_1089_182" fill="white">
<path d="M529.332 471.189V408.827Z"/>
</mask>
<path d="M527.332 471.189C527.332 472.294 528.227 473.189 529.332 473.189C530.437 473.189 531.332 472.294 531.332 471.189H529.332H527.332ZM531.332 408.827C531.332 407.723 530.437 406.827 529.332 406.827C528.227 406.827 527.332 407.723 527.332 408.827H529.332H531.332ZM529.332 471.189H531.332V408.827H529.332H527.332V471.189H529.332Z" fill="black" mask="url(#path-197-inside-99_1089_182)"/>
<mask id="path-199-inside-100_1089_182" fill="white">
<path d="M538.781 480.638L529.332 471.189Z"/>
</mask>
<path d="M537.367 482.052C538.148 482.834 539.414 482.834 540.195 482.052C540.976 481.271 540.976 480.005 540.195 479.224L538.781 480.638L537.367 482.052ZM530.746 469.775C529.965 468.994 528.699 468.994 527.918 469.775C527.137 470.556 527.137 471.823 527.918 472.604L529.332 471.189L530.746 469.775ZM538.781 480.638L540.195 479.224L530.746 469.775L529.332 471.189L527.918 472.604L537.367 482.052L538.781 480.638Z" fill="black" mask="url(#path-199-inside-100_1089_182)"/>
<mask id="path-201-inside-101_1089_182" fill="white">
<path d="M538.781 408.825V480.637Z"/>
</mask>
<path d="M540.781 408.825C540.781 407.721 539.886 406.825 538.781 406.825C537.677 406.825 536.781 407.721 536.781 408.825H538.781H540.781ZM536.781 480.637C536.781 481.742 537.677 482.637 538.781 482.637C539.886 482.637 540.781 481.742 540.781 480.637H538.781H536.781ZM538.781 408.825H536.781V480.637H538.781H540.781V408.825H538.781Z" fill="black" mask="url(#path-201-inside-101_1089_182)"/>
<mask id="path-203-inside-102_1089_182" fill="white">
<path d="M19.4727 508.606H528.953Z"/>
</mask>
<path d="M19.4727 506.606C18.3681 506.606 17.4727 507.502 17.4727 508.606C17.4727 509.711 18.3681 510.606 19.4727 510.606V508.606V506.606ZM528.953 510.606C530.058 510.606 530.953 509.711 530.953 508.606C530.953 507.502 530.058 506.606 528.953 506.606V508.606V510.606ZM19.4727 508.606V510.606H528.953V508.606V506.606H19.4727V508.606Z" fill="black" mask="url(#path-203-inside-102_1089_182)"/>
<mask id="path-205-inside-103_1089_182" fill="white">
<path d="M528.953 508.606V480.638Z"/>
</mask>
<path d="M526.953 508.606C526.953 509.711 527.849 510.606 528.953 510.606C530.058 510.606 530.953 509.711 530.953 508.606H528.953H526.953ZM530.953 480.638C530.953 479.533 530.058 478.638 528.953 478.638C527.849 478.638 526.953 479.533 526.953 480.638H528.953H530.953ZM528.953 508.606H530.953V480.638H528.953H526.953V508.606H528.953Z" fill="black" mask="url(#path-205-inside-103_1089_182)"/>
<mask id="path-207-inside-104_1089_182" fill="white">
<path d="M528.953 470.811V469.299Z"/>
</mask>
<path d="M526.953 470.811C526.953 471.916 527.849 472.811 528.953 472.811C530.058 472.811 530.953 471.916 530.953 470.811H528.953H526.953ZM530.953 469.299C530.953 468.194 530.058 467.299 528.953 467.299C527.849 467.299 526.953 468.194 526.953 469.299H528.953H530.953ZM528.953 470.811H530.953V469.299H528.953H526.953V470.811H528.953Z" fill="black" mask="url(#path-207-inside-104_1089_182)"/>
<mask id="path-209-inside-105_1089_182" fill="white">
<path d="M19.4727 469.299V470.811Z"/>
</mask>
<path d="M21.4727 469.299C21.4727 468.194 20.5772 467.299 19.4727 467.299C18.3681 467.299 17.4727 468.194 17.4727 469.299H19.4727H21.4727ZM17.4727 470.811C17.4727 471.916 18.3681 472.811 19.4727 472.811C20.5772 472.811 21.4727 471.916 21.4727 470.811H19.4727H17.4727ZM19.4727 469.299H17.4727V470.811H19.4727H21.4727V469.299H19.4727Z" fill="black" mask="url(#path-209-inside-105_1089_182)"/>
<mask id="path-211-inside-106_1089_182" fill="white">
<path d="M19.4727 480.638V508.606Z"/>
</mask>
<path d="M21.4727 480.638C21.4727 479.533 20.5772 478.638 19.4727 478.638C18.3681 478.638 17.4727 479.533 17.4727 480.638H19.4727H21.4727ZM17.4727 508.606C17.4727 509.711 18.3681 510.606 19.4727 510.606C20.5772 510.606 21.4727 509.711 21.4727 508.606H19.4727H17.4727ZM19.4727 480.638H17.4727V508.606H19.4727H21.4727V480.638H19.4727Z" fill="black" mask="url(#path-211-inside-106_1089_182)"/>
<mask id="path-213-inside-107_1089_182" fill="white">
<path d="M19.0977 471.189V408.827Z"/>
</mask>
<path d="M17.0977 471.189C17.0977 472.294 17.9931 473.189 19.0977 473.189C20.2022 473.189 21.0977 472.294 21.0977 471.189H19.0977H17.0977ZM21.0977 408.827C21.0977 407.723 20.2022 406.827 19.0977 406.827C17.9931 406.827 17.0977 407.723 17.0977 408.827H19.0977H21.0977ZM19.0977 471.189H21.0977V408.827H19.0977H17.0977V471.189H19.0977Z" fill="black" mask="url(#path-213-inside-107_1089_182)"/>
<mask id="path-215-inside-108_1089_182" fill="white">
<path d="M9.64844 480.638L19.0972 471.189Z"/>
</mask>
<path d="M8.23422 479.224C7.45318 480.005 7.45318 481.271 8.23422 482.052C9.01527 482.834 10.2816 482.834 11.0627 482.052L9.64844 480.638L8.23422 479.224ZM20.5115 472.604C21.2925 471.823 21.2925 470.556 20.5115 469.775C19.7304 468.994 18.4641 468.994 17.683 469.775L19.0972 471.189L20.5115 472.604ZM9.64844 480.638L11.0627 482.052L20.5115 472.604L19.0972 471.189L17.683 469.775L8.23422 479.224L9.64844 480.638Z" fill="black" mask="url(#path-215-inside-108_1089_182)"/>
<mask id="path-217-inside-109_1089_182" fill="white">
<path d="M9.64844 408.825V480.637Z"/>
</mask>
<path d="M11.6484 408.825C11.6484 407.721 10.753 406.825 9.64844 406.825C8.54387 406.825 7.64844 407.721 7.64844 408.825H9.64844H11.6484ZM7.64844 480.637C7.64844 481.742 8.54387 482.637 9.64844 482.637C10.753 482.637 11.6484 481.742 11.6484 480.637H9.64844H7.64844ZM9.64844 408.825H7.64844V480.637H9.64844H11.6484V408.825H9.64844Z" fill="black" mask="url(#path-217-inside-109_1089_182)"/>
<mask id="path-219-inside-110_1089_182" fill="white">
<path d="M19.4727 408.825V470.811Z"/>
</mask>
<path d="M21.4727 408.825C21.4727 407.721 20.5772 406.825 19.4727 406.825C18.3681 406.825 17.4727 407.721 17.4727 408.825H19.4727H21.4727ZM17.4727 470.811C17.4727 471.916 18.3681 472.811 19.4727 472.811C20.5772 472.811 21.4727 471.916 21.4727 470.811H19.4727H17.4727ZM19.4727 408.825H17.4727V470.811H19.4727H21.4727V408.825H19.4727Z" fill="black" mask="url(#path-219-inside-110_1089_182)"/>
<mask id="path-221-inside-111_1089_182" fill="white">
<path d="M528.953 470.811V408.825Z"/>
</mask>
<path d="M526.953 470.811C526.953 471.916 527.849 472.811 528.953 472.811C530.058 472.811 530.953 471.916 530.953 470.811H528.953H526.953ZM530.953 408.825C530.953 407.721 530.058 406.825 528.953 406.825C527.849 406.825 526.953 407.721 526.953 408.825H528.953H530.953ZM528.953 470.811H530.953V408.825H528.953H526.953V470.811H528.953Z" fill="black" mask="url(#path-221-inside-111_1089_182)"/>
<mask id="path-223-inside-112_1089_182" fill="white">
<path d="M19.4727 470.812H528.953Z"/>
</mask>
<path d="M19.4727 468.812C18.3681 468.812 17.4727 469.707 17.4727 470.812C17.4727 471.916 18.3681 472.812 19.4727 472.812V470.812V468.812ZM528.953 472.812C530.058 472.812 530.953 471.916 530.953 470.812C530.953 469.707 530.058 468.812 528.953 468.812V470.812V472.812ZM19.4727 470.812V472.812H528.953V470.812V468.812H19.4727V470.812Z" fill="black" mask="url(#path-223-inside-112_1089_182)"/>
<mask id="path-225-inside-113_1089_182" fill="white">
<path d="M528.953 550.182V518.434Z"/>
</mask>
<path d="M526.953 550.182C526.953 551.286 527.849 552.182 528.953 552.182C530.058 552.182 530.953 551.286 530.953 550.182H528.953H526.953ZM530.953 518.434C530.953 517.329 530.058 516.434 528.953 516.434C527.849 516.434 526.953 517.329 526.953 518.434H528.953H530.953ZM528.953 550.182H530.953V518.434H528.953H526.953V550.182H528.953Z" fill="black" mask="url(#path-225-inside-113_1089_182)"/>
<mask id="path-227-inside-114_1089_182" fill="white">
<path d="M528.953 508.606V507.093Z"/>
</mask>
<path d="M526.953 508.606C526.953 509.711 527.849 510.606 528.953 510.606C530.058 510.606 530.953 509.711 530.953 508.606H528.953H526.953ZM530.953 507.093C530.953 505.988 530.058 505.093 528.953 505.093C527.849 505.093 526.953 505.988 526.953 507.093H528.953H530.953ZM528.953 508.606H530.953V507.093H528.953H526.953V508.606H528.953Z" fill="black" mask="url(#path-227-inside-114_1089_182)"/>
<mask id="path-229-inside-115_1089_182" fill="white">
<path d="M19.4727 550.182H528.953Z"/>
</mask>
<path d="M19.4727 548.182C18.3681 548.182 17.4727 549.077 17.4727 550.182C17.4727 551.286 18.3681 552.182 19.4727 552.182V550.182V548.182ZM528.953 552.182C530.058 552.182 530.953 551.286 530.953 550.182C530.953 549.077 530.058 548.182 528.953 548.182V550.182V552.182ZM19.4727 550.182V552.182H528.953V550.182V548.182H19.4727V550.182Z" fill="black" mask="url(#path-229-inside-115_1089_182)"/>
<mask id="path-231-inside-116_1089_182" fill="white">
<path d="M19.4727 507.093V508.606Z"/>
</mask>
<path d="M21.4727 507.093C21.4727 505.988 20.5772 505.093 19.4727 505.093C18.3681 505.093 17.4727 505.988 17.4727 507.093H19.4727H21.4727ZM17.4727 508.606C17.4727 509.711 18.3681 510.606 19.4727 510.606C20.5772 510.606 21.4727 509.711 21.4727 508.606H19.4727H17.4727ZM19.4727 507.093H17.4727V508.606H19.4727H21.4727V507.093H19.4727Z" fill="black" mask="url(#path-231-inside-116_1089_182)"/>
<mask id="path-233-inside-117_1089_182" fill="white">
<path d="M19.4727 518.434V550.182Z"/>
</mask>
<path d="M21.4727 518.434C21.4727 517.329 20.5772 516.434 19.4727 516.434C18.3681 516.434 17.4727 517.329 17.4727 518.434H19.4727H21.4727ZM17.4727 550.182C17.4727 551.286 18.3681 552.182 19.4727 552.182C20.5772 552.182 21.4727 551.286 21.4727 550.182H19.4727H17.4727ZM19.4727 518.434H17.4727V550.182H19.4727H21.4727V518.434H19.4727Z" fill="black" mask="url(#path-233-inside-117_1089_182)"/>
<mask id="path-235-inside-118_1089_182" fill="white">
<path d="M19.0977 507.093V508.984Z"/>
</mask>
<path d="M21.0977 507.093C21.0977 505.988 20.2022 505.093 19.0977 505.093C17.9931 505.093 17.0977 505.988 17.0977 507.093H19.0977H21.0977ZM17.0977 508.984C17.0977 510.088 17.9931 510.984 19.0977 510.984C20.2022 510.984 21.0977 510.088 21.0977 508.984H19.0977H17.0977ZM19.0977 507.093H17.0977V508.984H19.0977H21.0977V507.093H19.0977Z" fill="black" mask="url(#path-235-inside-118_1089_182)"/>
<mask id="path-237-inside-119_1089_182" fill="white">
<path d="M19.0977 518.434V550.56Z"/>
</mask>
<path d="M21.0977 518.434C21.0977 517.329 20.2022 516.434 19.0977 516.434C17.9931 516.434 17.0977 517.329 17.0977 518.434H19.0977H21.0977ZM17.0977 550.56C17.0977 551.664 17.9931 552.56 19.0977 552.56C20.2022 552.56 21.0977 551.664 21.0977 550.56H19.0977H17.0977ZM19.0977 518.434H17.0977V550.56H19.0977H21.0977V518.434H19.0977Z" fill="black" mask="url(#path-237-inside-119_1089_182)"/>
<mask id="path-239-inside-120_1089_182" fill="white">
<path d="M19.0972 550.56L9.64844 560.008Z"/>
</mask>
<path d="M20.5115 551.974C21.2925 551.193 21.2925 549.926 20.5115 549.145C19.7304 548.364 18.4641 548.364 17.683 549.145L19.0972 550.56L20.5115 551.974ZM8.23422 558.594C7.45317 559.375 7.45318 560.642 8.23423 561.423C9.01528 562.204 10.2816 562.204 11.0627 561.423L9.64844 560.008L8.23422 558.594ZM19.0972 550.56L17.683 549.145L8.23422 558.594L9.64844 560.008L11.0627 561.423L20.5115 551.974L19.0972 550.56Z" fill="black" mask="url(#path-239-inside-120_1089_182)"/>
<mask id="path-241-inside-121_1089_182" fill="white">
<path d="M9.64844 560.008V507.093Z"/>
</mask>
<path d="M7.64844 560.008C7.64844 561.112 8.54387 562.008 9.64844 562.008C10.753 562.008 11.6484 561.112 11.6484 560.008H9.64844H7.64844ZM11.6484 507.093C11.6484 505.988 10.753 505.093 9.64844 505.093C8.54387 505.093 7.64844 505.988 7.64844 507.093H9.64844H11.6484ZM9.64844 560.008H11.6484V507.093H9.64844H7.64844V560.008H9.64844Z" fill="black" mask="url(#path-241-inside-121_1089_182)"/>
<mask id="path-243-inside-122_1089_182" fill="white">
<path d="M9.64844 518.434H538.782Z"/>
</mask>
<path d="M9.64844 516.434C8.54387 516.434 7.64844 517.329 7.64844 518.434C7.64844 519.538 8.54387 520.434 9.64844 520.434V518.434V516.434ZM538.782 520.434C539.887 520.434 540.782 519.538 540.782 518.434C540.782 517.329 539.887 516.434 538.782 516.434V518.434V520.434ZM9.64844 518.434V520.434H538.782V518.434V516.434H9.64844V518.434Z" fill="black" mask="url(#path-243-inside-122_1089_182)"/>
<mask id="path-245-inside-123_1089_182" fill="white">
<path d="M19.0972 508.984L9.64844 518.433Z"/>
</mask>
<path d="M20.5115 510.399C21.2925 509.618 21.2925 508.351 20.5115 507.57C19.7304 506.789 18.4641 506.789 17.683 507.57L19.0972 508.984L20.5115 510.399ZM8.23423 517.019C7.45318 517.8 7.45317 519.066 8.23422 519.847C9.01527 520.628 10.2816 520.628 11.0626 519.847L9.64844 518.433L8.23423 517.019ZM19.0972 508.984L17.683 507.57L8.23423 517.019L9.64844 518.433L11.0626 519.847L20.5115 510.399L19.0972 508.984Z" fill="black" mask="url(#path-245-inside-123_1089_182)"/>
<mask id="path-247-inside-124_1089_182" fill="white">
<path d="M529.334 508.984H19.0977Z"/>
</mask>
<path d="M529.334 510.984C530.438 510.984 531.334 510.089 531.334 508.984C531.334 507.88 530.438 506.984 529.334 506.984V508.984V510.984ZM19.0977 506.984C17.9931 506.984 17.0977 507.88 17.0977 508.984C17.0977 510.089 17.9931 510.984 19.0977 510.984V508.984V506.984ZM529.334 508.984V506.984H19.0977V508.984V510.984H529.334V508.984Z" fill="black" mask="url(#path-247-inside-124_1089_182)"/>
<mask id="path-249-inside-125_1089_182" fill="white">
<path d="M538.781 518.433L529.332 508.984Z"/>
</mask>
<path d="M537.367 519.847C538.148 520.628 539.414 520.628 540.195 519.847C540.976 519.066 540.976 517.8 540.195 517.019L538.781 518.433L537.367 519.847ZM530.746 507.57C529.965 506.789 528.699 506.789 527.918 507.57C527.137 508.351 527.137 509.618 527.918 510.399L529.332 508.984L530.746 507.57ZM538.781 518.433L540.195 517.019L530.746 507.57L529.332 508.984L527.918 510.399L537.367 519.847L538.781 518.433Z" fill="black" mask="url(#path-249-inside-125_1089_182)"/>
<mask id="path-251-inside-126_1089_182" fill="white">
<path d="M529.332 550.56L538.781 560.008Z"/>
</mask>
<path d="M530.746 549.145C529.965 548.364 528.699 548.364 527.918 549.145C527.137 549.926 527.137 551.193 527.918 551.974L529.332 550.56L530.746 549.145ZM537.367 561.423C538.148 562.204 539.414 562.204 540.195 561.423C540.976 560.642 540.976 559.375 540.195 558.594L538.781 560.008L537.367 561.423ZM529.332 550.56L527.918 551.974L537.367 561.423L538.781 560.008L540.195 558.594L530.746 549.145L529.332 550.56Z" fill="black" mask="url(#path-251-inside-126_1089_182)"/>
<mask id="path-253-inside-127_1089_182" fill="white">
<path d="M529.332 507.093V508.984Z"/>
</mask>
<path d="M531.332 507.093C531.332 505.988 530.437 505.093 529.332 505.093C528.227 505.093 527.332 505.988 527.332 507.093H529.332H531.332ZM527.332 508.984C527.332 510.088 528.227 510.984 529.332 510.984C530.437 510.984 531.332 510.088 531.332 508.984H529.332H527.332ZM529.332 507.093H527.332V508.984H529.332H531.332V507.093H529.332Z" fill="black" mask="url(#path-253-inside-127_1089_182)"/>
<mask id="path-255-inside-128_1089_182" fill="white">
<path d="M529.332 518.434V550.56Z"/>
</mask>
<path d="M531.332 518.434C531.332 517.329 530.437 516.434 529.332 516.434C528.227 516.434 527.332 517.329 527.332 518.434H529.332H531.332ZM527.332 550.56C527.332 551.664 528.227 552.56 529.332 552.56C530.437 552.56 531.332 551.664 531.332 550.56H529.332H527.332ZM529.332 518.434H527.332V550.56H529.332H531.332V518.434H529.332Z" fill="black" mask="url(#path-255-inside-128_1089_182)"/>
<mask id="path-257-inside-129_1089_182" fill="white">
<path d="M538.781 560.008V507.093Z"/>
</mask>
<path d="M536.781 560.008C536.781 561.112 537.677 562.008 538.781 562.008C539.886 562.008 540.781 561.112 540.781 560.008H538.781H536.781ZM540.781 507.093C540.781 505.988 539.886 505.093 538.781 505.093C537.677 505.093 536.781 505.988 536.781 507.093H538.781H540.781ZM538.781 560.008H540.781V507.093H538.781H536.781V560.008H538.781Z" fill="black" mask="url(#path-257-inside-129_1089_182)"/>
<mask id="path-259-inside-130_1089_182" fill="white">
<path d="M19.0977 469.299V471.189Z"/>
</mask>
<path d="M21.0977 469.299C21.0977 468.194 20.2022 467.299 19.0977 467.299C17.9931 467.299 17.0977 468.194 17.0977 469.299H19.0977H21.0977ZM17.0977 471.189C17.0977 472.293 17.9931 473.189 19.0977 473.189C20.2022 473.189 21.0977 472.293 21.0977 471.189H19.0977H17.0977ZM19.0977 469.299H17.0977V471.189H19.0977H21.0977V469.299H19.0977Z" fill="black" mask="url(#path-259-inside-130_1089_182)"/>
<mask id="path-261-inside-131_1089_182" fill="white">
<path d="M19.0977 480.638V508.984Z"/>
</mask>
<path d="M21.0977 480.638C21.0977 479.533 20.2022 478.638 19.0977 478.638C17.9931 478.638 17.0977 479.533 17.0977 480.638H19.0977H21.0977ZM17.0977 508.984C17.0977 510.089 17.9931 510.984 19.0977 510.984C20.2022 510.984 21.0977 510.089 21.0977 508.984H19.0977H17.0977ZM19.0977 480.638H17.0977V508.984H19.0977H21.0977V480.638H19.0977Z" fill="black" mask="url(#path-261-inside-131_1089_182)"/>
<mask id="path-263-inside-132_1089_182" fill="white">
<path d="M9.64844 518.433V469.299Z"/>
</mask>
<path d="M7.64844 518.433C7.64844 519.538 8.54387 520.433 9.64844 520.433C10.753 520.433 11.6484 519.538 11.6484 518.433H9.64844H7.64844ZM11.6484 469.299C11.6484 468.194 10.753 467.299 9.64844 467.299C8.54387 467.299 7.64844 468.194 7.64844 469.299H9.64844H11.6484ZM9.64844 518.433H11.6484V469.299H9.64844H7.64844V518.433H9.64844Z" fill="black" mask="url(#path-263-inside-132_1089_182)"/>
<mask id="path-265-inside-133_1089_182" fill="white">
<path d="M19.0972 508.984L9.64844 518.433Z"/>
</mask>
<path d="M20.5115 510.399C21.2925 509.618 21.2925 508.351 20.5115 507.57C19.7304 506.789 18.4641 506.789 17.683 507.57L19.0972 508.984L20.5115 510.399ZM8.23423 517.019C7.45318 517.8 7.45317 519.066 8.23422 519.847C9.01527 520.628 10.2816 520.628 11.0626 519.847L9.64844 518.433L8.23423 517.019ZM19.0972 508.984L17.683 507.57L8.23423 517.019L9.64844 518.433L11.0626 519.847L20.5115 510.399L19.0972 508.984Z" fill="black" mask="url(#path-265-inside-133_1089_182)"/>
<mask id="path-267-inside-134_1089_182" fill="white">
<path d="M538.782 560.008H9.64844Z"/>
</mask>
<path d="M538.782 562.008C539.887 562.008 540.782 561.112 540.782 560.008C540.782 558.903 539.887 558.008 538.782 558.008V560.008V562.008ZM9.64844 558.008C8.54387 558.008 7.64844 558.903 7.64844 560.008C7.64844 561.112 8.54387 562.008 9.64844 562.008V560.008V558.008ZM538.782 560.008V558.008H9.64844V560.008V562.008H538.782V560.008Z" fill="black" mask="url(#path-267-inside-134_1089_182)"/>
<mask id="path-269-inside-135_1089_182" fill="white">
<path d="M270.308 319.398L211.918 256.377Z"/>
</mask>
<path d="M268.841 320.758C269.592 321.568 270.857 321.616 271.668 320.866C272.478 320.115 272.526 318.849 271.775 318.039L270.308 319.398L268.841 320.758ZM213.385 255.018C212.634 254.207 211.369 254.159 210.559 254.91C209.748 255.661 209.7 256.926 210.451 257.736L211.918 256.377L213.385 255.018ZM270.308 319.398L271.775 318.039L213.385 255.018L211.918 256.377L210.451 257.736L268.841 320.758L270.308 319.398Z" fill="black" mask="url(#path-269-inside-135_1089_182)"/>
<mask id="path-271-inside-136_1089_182" fill="white">
<path d="M297.557 323.28L202.188 222.6Z"/>
</mask>
<path d="M296.105 324.655C296.865 325.457 298.131 325.491 298.932 324.732C299.734 323.972 299.769 322.706 299.009 321.904L297.557 323.28L296.105 324.655ZM203.639 221.224C202.88 220.422 201.614 220.388 200.812 221.148C200.01 221.907 199.976 223.173 200.736 223.975L202.188 222.6L203.639 221.224ZM297.557 323.28L299.009 321.904L203.639 221.224L202.188 222.6L200.736 223.975L296.105 324.655L297.557 323.28Z" fill="black" mask="url(#path-271-inside-136_1089_182)"/>
<mask id="path-273-inside-137_1089_182" fill="white">
<path d="M280.689 286.248L233.977 236.872Z"/>
</mask>
<path d="M279.236 287.622C279.995 288.425 281.261 288.46 282.063 287.701C282.866 286.941 282.901 285.676 282.142 284.873L280.689 286.248L279.236 287.622ZM235.429 235.498C234.67 234.695 233.404 234.66 232.602 235.419C231.8 236.178 231.765 237.444 232.524 238.247L233.977 236.872L235.429 235.498ZM280.689 286.248L282.142 284.873L235.429 235.498L233.977 236.872L232.524 238.247L279.236 287.622L280.689 286.248Z" fill="black" mask="url(#path-273-inside-137_1089_182)"/>
<mask id="path-275-inside-138_1089_182" fill="white">
<path d="M292.889 460.452L270.277 436.047Z"/>
</mask>
<path d="M291.422 461.811C292.172 462.621 293.438 462.669 294.248 461.919C295.058 461.168 295.107 459.903 294.356 459.092L292.889 460.452L291.422 461.811ZM271.744 434.688C270.994 433.877 269.728 433.829 268.918 434.58C268.108 435.33 268.06 436.596 268.81 437.406L270.277 436.047L271.744 434.688ZM292.889 460.452L294.356 459.092L271.744 434.688L270.277 436.047L268.81 437.406L291.422 461.811L292.889 460.452Z" fill="black" mask="url(#path-275-inside-138_1089_182)"/>
<mask id="path-277-inside-139_1089_182" fill="white">
<path d="M303.439 461.955L266.508 422.967Z"/>
</mask>
<path d="M301.987 463.33C302.747 464.132 304.013 464.166 304.815 463.407C305.616 462.647 305.651 461.381 304.891 460.579L303.439 461.955L301.987 463.33ZM267.96 421.591C267.2 420.789 265.934 420.755 265.132 421.515C264.331 422.274 264.296 423.54 265.056 424.342L266.508 422.967L267.96 421.591ZM303.439 461.955L304.891 460.579L267.96 421.591L266.508 422.967L265.056 424.342L301.987 463.33L303.439 461.955Z" fill="black" mask="url(#path-277-inside-139_1089_182)"/>
<mask id="path-279-inside-140_1089_182" fill="white">
<path d="M296.909 447.615L278.82 428.494Z"/>
</mask>
<path d="M295.457 448.989C296.216 449.791 297.482 449.827 298.284 449.067C299.086 448.308 299.121 447.042 298.362 446.24L296.909 447.615L295.457 448.989ZM280.273 427.12C279.514 426.317 278.248 426.282 277.446 427.041C276.643 427.8 276.608 429.066 277.367 429.869L278.82 428.494L280.273 427.12ZM296.909 447.615L298.362 446.24L280.273 427.12L278.82 428.494L277.367 429.869L295.457 448.989L296.909 447.615Z" fill="black" mask="url(#path-279-inside-140_1089_182)"/>
<mask id="path-281-inside-141_1089_182" fill="white">
<path d="M298.336 507.471L286.371 494.557Z"/>
</mask>
<path d="M296.869 508.83C297.62 509.64 298.885 509.689 299.695 508.938C300.506 508.187 300.554 506.922 299.803 506.111L298.336 507.471L296.869 508.83ZM287.838 493.197C287.087 492.387 285.822 492.339 285.012 493.09C284.202 493.84 284.153 495.106 284.904 495.916L286.371 494.557L287.838 493.197ZM298.336 507.471L299.803 506.111L287.838 493.197L286.371 494.557L284.904 495.916L296.869 508.83L298.336 507.471Z" fill="black" mask="url(#path-281-inside-141_1089_182)"/>
<mask id="path-283-inside-142_1089_182" fill="white">
<path d="M303.918 508.267L284.375 487.636Z"/>
</mask>
<path d="M302.466 509.642C303.225 510.444 304.491 510.478 305.293 509.719C306.095 508.959 306.129 507.693 305.37 506.891L303.918 508.267L302.466 509.642ZM285.827 486.26C285.067 485.458 283.802 485.424 283 486.184C282.198 486.943 282.163 488.209 282.923 489.011L284.375 487.636L285.827 486.26ZM303.918 508.267L305.37 506.891L285.827 486.26L284.375 487.636L282.923 489.011L302.466 509.642L303.918 508.267Z" fill="black" mask="url(#path-283-inside-142_1089_182)"/>
<mask id="path-285-inside-143_1089_182" fill="white">
<path d="M300.463 500.677L290.891 490.56Z"/>
</mask>
<path d="M299.01 502.052C299.769 502.854 301.035 502.889 301.837 502.13C302.64 501.371 302.675 500.105 301.916 499.303L300.463 500.677L299.01 502.052ZM292.343 489.185C291.584 488.383 290.319 488.348 289.516 489.107C288.714 489.866 288.679 491.132 289.438 491.934L290.891 490.56L292.343 489.185ZM300.463 500.677L301.916 499.303L292.343 489.185L290.891 490.56L289.438 491.934L299.01 502.052L300.463 500.677Z" fill="black" mask="url(#path-285-inside-143_1089_182)"/>
<mask id="path-287-inside-144_1089_182" fill="white">
<path d="M298.336 546.006L286.371 533.092Z"/>
</mask>
<path d="M296.869 547.365C297.62 548.175 298.885 548.224 299.695 547.473C300.506 546.722 300.554 545.457 299.803 544.647L298.336 546.006L296.869 547.365ZM287.838 531.733C287.087 530.922 285.822 530.874 285.012 531.625C284.202 532.375 284.153 533.641 284.904 534.451L286.371 533.092L287.838 531.733ZM298.336 546.006L299.803 544.647L287.838 531.733L286.371 533.092L284.904 534.451L296.869 547.365L298.336 546.006Z" fill="black" mask="url(#path-287-inside-144_1089_182)"/>
<mask id="path-289-inside-145_1089_182" fill="white">
<path d="M303.918 546.802L284.375 526.171Z"/>
</mask>
<path d="M302.466 548.177C303.225 548.979 304.491 549.013 305.293 548.254C306.095 547.494 306.129 546.228 305.37 545.426L303.918 546.802L302.466 548.177ZM285.827 524.795C285.067 523.994 283.802 523.959 283 524.719C282.198 525.479 282.163 526.744 282.923 527.546L284.375 526.171L285.827 524.795ZM303.918 546.802L305.37 545.426L285.827 524.795L284.375 526.171L282.923 527.546L302.466 548.177L303.918 546.802Z" fill="black" mask="url(#path-289-inside-145_1089_182)"/>
<mask id="path-291-inside-146_1089_182" fill="white">
<path d="M300.463 539.214L290.891 529.096Z"/>
</mask>
<path d="M299.01 540.588C299.769 541.39 301.035 541.426 301.837 540.666C302.64 539.907 302.675 538.641 301.916 537.839L300.463 539.214L299.01 540.588ZM292.343 527.721C291.584 526.919 290.319 526.884 289.516 527.643C288.714 528.402 288.679 529.668 289.438 530.47L290.891 529.096L292.343 527.721ZM300.463 539.214L301.916 537.839L292.343 527.721L290.891 529.096L289.438 530.47L299.01 540.588L300.463 539.214Z" fill="black" mask="url(#path-291-inside-146_1089_182)"/>
<mask id="path-293-inside-147_1089_182" fill="white">
<path d="M292.889 106.849L270.277 131.253Z"/>
</mask>
<path d="M294.356 108.208C295.107 107.398 295.058 106.132 294.248 105.382C293.438 104.631 292.172 104.679 291.422 105.489L292.889 106.849L294.356 108.208ZM268.81 129.894C268.06 130.704 268.108 131.97 268.918 132.72C269.728 133.471 270.994 133.423 271.744 132.613L270.277 131.253L268.81 129.894ZM292.889 106.849L291.422 105.489L268.81 129.894L270.277 131.253L271.744 132.613L294.356 108.208L292.889 106.849Z" fill="black" mask="url(#path-293-inside-147_1089_182)"/>
<mask id="path-295-inside-148_1089_182" fill="white">
<path d="M303.439 105.346L266.508 144.334Z"/>
</mask>
<path d="M304.891 106.721C305.651 105.919 305.616 104.653 304.815 103.894C304.013 103.134 302.747 103.168 301.987 103.97L303.439 105.346L304.891 106.721ZM265.056 142.958C264.296 143.76 264.331 145.026 265.132 145.786C265.934 146.545 267.2 146.511 267.96 145.709L266.508 144.334L265.056 142.958ZM303.439 105.346L301.987 103.97L265.056 142.958L266.508 144.334L267.96 145.709L304.891 106.721L303.439 105.346Z" fill="black" mask="url(#path-295-inside-148_1089_182)"/>
<mask id="path-297-inside-149_1089_182" fill="white">
<path d="M296.909 119.686L278.82 138.806Z"/>
</mask>
<path d="M298.362 121.06C299.121 120.258 299.086 118.992 298.284 118.233C297.482 117.474 296.216 117.509 295.457 118.311L296.909 119.686L298.362 121.06ZM277.367 137.432C276.608 138.234 276.643 139.5 277.446 140.259C278.248 141.018 279.514 140.983 280.273 140.181L278.82 138.806L277.367 137.432ZM296.909 119.686L295.457 118.311L277.367 137.432L278.82 138.806L280.273 140.181L298.362 121.06L296.909 119.686Z" fill="black" mask="url(#path-297-inside-149_1089_182)"/>
<mask id="path-299-inside-150_1089_182" fill="white">
<path d="M298.336 59.8291L286.371 72.7432Z"/>
</mask>
<path d="M299.803 61.1884C300.554 60.3781 300.506 59.1127 299.695 58.362C298.885 57.6113 297.62 57.6596 296.869 58.4698L298.336 59.8291L299.803 61.1884ZM284.904 71.3839C284.153 72.1941 284.202 73.4596 285.012 74.2103C285.822 74.961 287.087 74.9127 287.838 74.1025L286.371 72.7432L284.904 71.3839ZM298.336 59.8291L296.869 58.4698L284.904 71.3839L286.371 72.7432L287.838 74.1025L299.803 61.1884L298.336 59.8291Z" fill="black" mask="url(#path-299-inside-150_1089_182)"/>
<mask id="path-301-inside-151_1089_182" fill="white">
<path d="M303.918 59.0332L284.375 79.6641Z"/>
</mask>
<path d="M305.37 60.4086C306.129 59.6067 306.095 58.3408 305.293 57.5812C304.491 56.8216 303.225 56.8559 302.466 57.6578L303.918 59.0332L305.37 60.4086ZM282.923 78.2887C282.163 79.0906 282.198 80.3565 283 81.1161C283.802 81.8757 285.067 81.8414 285.827 81.0395L284.375 79.6641L282.923 78.2887ZM303.918 59.0332L302.466 57.6578L282.923 78.2887L284.375 79.6641L285.827 81.0395L305.37 60.4086L303.918 59.0332Z" fill="black" mask="url(#path-301-inside-151_1089_182)"/>
<mask id="path-303-inside-152_1089_182" fill="white">
<path d="M300.463 66.6221L290.891 76.7399Z"/>
</mask>
<path d="M301.916 67.9966C302.675 67.1942 302.64 65.9283 301.837 65.1692C301.035 64.4101 299.769 64.4452 299.01 65.2476L300.463 66.6221L301.916 67.9966ZM289.438 75.3654C288.679 76.1678 288.714 77.4337 289.516 78.1928C290.319 78.9519 291.584 78.9168 292.343 78.1144L290.891 76.7399L289.438 75.3654ZM300.463 66.6221L299.01 65.2476L289.438 75.3654L290.891 76.7399L292.343 78.1144L301.916 67.9966L300.463 66.6221Z" fill="black" mask="url(#path-303-inside-152_1089_182)"/>
<mask id="path-305-inside-153_1089_182" fill="white">
<path d="M298.336 21.2939L286.371 34.208Z"/>
</mask>
<path d="M299.803 22.6532C300.554 21.843 300.506 20.5776 299.695 19.8269C298.885 19.0761 297.62 19.1244 296.869 19.9347L298.336 21.2939L299.803 22.6532ZM284.904 32.8487C284.153 33.659 284.202 34.9244 285.012 35.6751C285.822 36.4258 287.087 36.3776 287.838 35.5673L286.371 34.208L284.904 32.8487ZM298.336 21.2939L296.869 19.9347L284.904 32.8487L286.371 34.208L287.838 35.5673L299.803 22.6532L298.336 21.2939Z" fill="black" mask="url(#path-305-inside-153_1089_182)"/>
<mask id="path-307-inside-154_1089_182" fill="white">
<path d="M303.918 20.498L284.375 41.1289Z"/>
</mask>
<path d="M305.37 21.8734C306.129 21.0715 306.095 19.8057 305.293 19.0461C304.491 18.2864 303.225 18.3207 302.466 19.1226L303.918 20.498L305.37 21.8734ZM282.923 39.7535C282.163 40.5554 282.198 41.8213 283 42.5809C283.802 43.3405 285.067 43.3062 285.827 42.5043L284.375 41.1289L282.923 39.7535ZM303.918 20.498L302.466 19.1226L282.923 39.7535L284.375 41.1289L285.827 42.5043L305.37 21.8734L303.918 20.498Z" fill="black" mask="url(#path-307-inside-154_1089_182)"/>
<mask id="path-309-inside-155_1089_182" fill="white">
<path d="M300.463 28.0869L290.891 38.2047Z"/>
</mask>
<path d="M301.916 29.4614C302.675 28.659 302.64 27.3932 301.837 26.6341C301.035 25.875 299.769 25.91 299.01 26.7124L300.463 28.0869L301.916 29.4614ZM289.438 36.8303C288.679 37.6326 288.714 38.8985 289.516 39.6576C290.319 40.4167 291.584 40.3816 292.343 39.5792L290.891 38.2047L289.438 36.8303ZM300.463 28.0869L299.01 26.7124L289.438 36.8303L290.891 38.2047L292.343 39.5792L301.916 29.4614L300.463 28.0869Z" fill="black" mask="url(#path-309-inside-155_1089_182)"/>
</g>
<defs>
<clipPath id="clip0_1089_182">
<rect width="549" height="561" fill="white"/>
</clipPath>
</defs>
</svg>
